# This file uses centimeters as units for non-parametric coordinates.

mtllib exhaust.mtl
g default
v 75.992477 110.736725 -463.006592
v 77.524857 109.062744 -460.948425
v 77.783226 108.501289 -460.407104
v 77.555313 107.777954 -460.202850
v 76.914764 107.186920 -460.448120
v 76.193153 106.840714 -460.955566
v 75.101379 106.468597 -461.688965
v 73.222954 105.944481 -462.940369
v 80.820740 110.238266 -456.588562
v 82.803345 108.143799 -453.242554
v 82.923752 107.216431 -452.805542
v 81.761078 106.442688 -453.857300
v 78.656708 105.488258 -456.545990
v 75.909790 104.835564 -458.664917
v 73.466980 104.392151 -460.310669
v 71.448059 104.311234 -461.385925
v 67.216949 104.451538 -463.158539
v 61.131744 104.760719 -465.563995
v 58.845535 105.125412 -466.555908
v 57.143890 106.071472 -467.572327
v 56.013611 107.267075 -468.517395
v 77.572311 112.999184 -461.256073
v 74.399445 114.844131 -464.726929
v 72.912506 115.279930 -465.733917
v 70.916809 115.553986 -466.759888
v 67.134186 115.778824 -468.091370
v 58.538574 116.001846 -470.693787
v 56.159576 115.979866 -471.428802
v 54.589935 115.875206 -471.791229
v 53.410370 115.365593 -472.213287
v 52.109039 114.533737 -472.733734
v 51.550110 113.522644 -472.707764
v 52.656525 111.404045 -471.588531
v 77.088272 112.004959 -462.484253
v 74.425903 113.980553 -465.600830
v 73.070374 114.643349 -466.684326
v 71.282471 115.006752 -467.695862
v 67.490646 115.263069 -469.108765
v 58.792389 115.479561 -471.773529
v 56.197205 115.475212 -472.468750
v 54.790405 115.390991 -472.810974
v 53.575012 114.993256 -473.047241
v 52.274567 114.233002 -473.272461
v 51.809052 113.329651 -473.122803
v 52.973572 111.282959 -472.024292
v 56.352234 107.148598 -469.111145
v 57.531387 105.970772 -468.167297
v 59.361023 105.226440 -467.325348
v 61.831268 104.975510 -466.549683
v 67.737274 104.811356 -464.771729
v 71.738403 104.777290 -463.444763
v 73.629486 104.955002 -462.389435
v 75.995911 105.441948 -460.572021
v 78.002960 105.960533 -458.872650
v 80.198822 106.691322 -456.883942
v 81.175964 107.305756 -456.060547
v 80.978035 108.152260 -456.716705
v 79.663574 109.671898 -458.922424
v 73.730759 112.731171 -465.634888
v 72.479607 113.329224 -466.629913
v 70.950981 113.707100 -467.489960
v 67.413467 113.993996 -468.835815
v 59.247345 114.283737 -471.348846
v 57.113220 114.314880 -471.928741
v 55.977951 114.148804 -472.222839
v 55.311142 113.832275 -472.347229
v 54.821045 113.462860 -472.408569
v 54.540688 112.792038 -472.285583
v 54.750664 111.936676 -471.903503
v 57.733772 107.815018 -469.187500
v 58.774269 106.782913 -468.355255
v 60.464905 106.034737 -467.368225
v 62.175529 105.786003 -466.685425
v 67.847580 105.693314 -464.925659
v 71.735405 105.742661 -463.669189
v 74.398849 110.404404 -462.264709
v 75.658508 109.003319 -460.554016
v 75.864502 108.614044 -460.183105
v 75.864105 108.138077 -459.974670
v 75.661530 107.733788 -459.982513
v 75.231750 107.395859 -460.184204
v 74.249542 106.951447 -460.785828
v 72.511444 106.339752 -461.831207
v 71.077820 106.071182 -462.424988
v 67.243988 106.015976 -463.666290
v 62.664093 106.205177 -465.106842
v 61.297073 106.800385 -465.765564
v 60.083160 107.984962 -466.684082
v 59.419189 108.909485 -467.307373
v 57.401611 111.836891 -469.332520
v 57.275284 112.394989 -469.641113
v 57.394043 112.909134 -469.875427
v 57.722229 113.310303 -470.001709
v 58.248383 113.599785 -470.014496
v 58.926453 113.748283 -469.935608
v 59.812683 113.757492 -469.700928
v 66.923172 113.506660 -467.449829
v 70.091248 113.215576 -466.247131
v 71.408203 112.754219 -465.396729
v 72.400208 112.190430 -464.574036
v 80.722534 110.238266 -456.098511
v 82.705139 108.143799 -452.752502
v 82.825546 107.216431 -452.315491
v 81.662872 106.442688 -453.367218
v 78.558502 105.488258 -456.055969
v 75.811584 104.835564 -458.174866
v 73.375549 104.394531 -459.855408
v 71.356873 104.314316 -460.930664
v 67.125824 104.454880 -462.703247
v 61.040680 104.762840 -465.108673
v 58.754715 105.127182 -466.100586
v 57.052063 106.070816 -467.117126
v 55.921265 107.265961 -468.062256
v 77.472229 112.987396 -460.800781
v 74.304749 114.833679 -464.271973
v 72.820251 115.274872 -465.278748
v 70.824921 115.547653 -466.304657
v 67.042816 115.775970 -467.636108
v 58.447266 115.999893 -470.238525
v 56.068359 115.969681 -470.973511
v 54.499451 115.871635 -471.335876
v 53.319580 115.364746 -471.757935
v 52.018982 114.532219 -472.278320
v 51.457611 113.522415 -472.252655
v 52.563721 111.402695 -471.133484
v 74.400467 110.404404 -457.471863
v 75.245667 109.003319 -457.436768
v 75.383881 108.614044 -457.429169
v 75.383606 108.138077 -457.424896
v 75.247681 107.733788 -457.425049
v 74.959351 107.395859 -457.429199
v 74.300293 106.951447 -457.441528
v 73.134125 106.339752 -457.462982
v 72.172241 106.071182 -457.475159
v 69.599899 106.015976 -457.500641
v 66.242645 106.205177 -457.530182
v 65.325424 106.800385 -457.543701
v 64.510925 107.984962 -457.562531
v 64.065430 108.909485 -457.575317
v 62.996063 111.836891 -457.616852
v 62.911331 112.394989 -457.623169
v 62.991028 112.909134 -457.627991
v 63.211212 113.310303 -457.630585
v 63.564240 113.599785 -457.630829
v 64.019165 113.748283 -457.629211
v 64.613861 113.757492 -457.624420
v 69.384628 113.506660 -457.578247
v 71.510284 113.215576 -457.553558
v 72.393890 112.754219 -457.536102
v 73.059448 112.190430 -457.519226
v 74.400467 110.404404 -444.098450
v 75.245667 109.003319 -444.063354
v 75.383881 108.614044 -444.055756
v 75.383606 108.138077 -444.051483
v 75.247681 107.733788 -444.051636
v 74.959351 107.395859 -444.055786
v 74.300293 106.951447 -444.068115
v 73.134125 106.339752 -444.089569
v 72.172241 106.071182 -444.101746
v 69.599899 106.015976 -444.127228
v 66.242645 106.205177 -444.156769
v 65.325409 106.800385 -444.170288
v 64.510925 107.984962 -444.189117
v 64.065430 108.909485 -444.201904
v 62.996094 111.836891 -444.243439
v 62.911331 112.394989 -444.249756
v 62.991028 112.909134 -444.254578
v 63.211243 113.310303 -444.257172
v 63.564240 113.599785 -444.257416
v 64.019165 113.748283 -444.255798
v 64.613831 113.757492 -444.251007
v 69.384628 113.506660 -444.204834
v 71.510284 113.215576 -444.180145
v 72.393890 112.754219 -444.162689
v 73.059448 112.190430 -444.145813
vt 0.541441 0.491980
vt 0.532419 0.511112
vt 0.547327 0.478593
vt 0.549749 0.477163
vt 0.553447 0.481864
vt 0.559758 0.493591
vt 0.565657 0.504008
vt 0.571485 0.515706
vt 0.574363 0.524693
vt 0.578257 0.545401
vt 0.581601 0.578536
vt 0.581354 0.592373
vt 0.578613 0.602874
vt 0.573377 0.610766
vt 0.522085 0.536698
vt 0.520792 0.546216
vt 0.524583 0.528945
vt 0.520803 0.566426
vt 0.526968 0.612814
vt 0.531826 0.625568
vt 0.535134 0.631713
vt 0.539021 0.636121
vt 0.544344 0.639762
vt 0.547739 0.640182
vt 0.555699 0.633272
vt 0.530767 0.531133
vt 0.528701 0.538501
vt 0.527660 0.546825
vt 0.527884 0.565718
vt 0.532495 0.608382
vt 0.535889 0.618527
vt 0.538575 0.623524
vt 0.541106 0.626030
vt 0.543505 0.627733
vt 0.546920 0.628015
vt 0.550675 0.625852
vt 0.568052 0.605006
vt 0.572563 0.597762
vt 0.575407 0.587252
vt 0.575686 0.577411
vt 0.572135 0.546019
vt 0.569024 0.526322
vt 0.538494 0.515865
vt 0.545423 0.504918
vt 0.548266 0.502357
vt 0.552179 0.502041
vt 0.556114 0.504126
vt 0.559181 0.506990
vt 0.562473 0.511533
vt 0.567026 0.519737
vt 0.601445 0.784193
vt 0.584180 0.802454
vt 0.581576 0.802855
vt 0.579651 0.803642
vt 0.578568 0.804841
vt 0.570484 0.652790
vt 0.572996 0.656062
vt 0.577522 0.661330
vt 0.580531 0.665418
vt 0.588880 0.675458
vt 0.601068 0.686406
vt 0.606204 0.689747
vt 0.612401 0.693838
vt 0.616524 0.696770
vt 0.630488 0.705737
vt 0.632474 0.707537
vt 0.633754 0.709503
vt 0.634239 0.711573
vt 0.633999 0.713963
vt 0.633219 0.716670
vt 0.631650 0.720049
vt 0.619569 0.747299
vt 0.614586 0.759953
vt 0.611378 0.765753
vt 0.608430 0.770695
vt 0.536820 0.479415
vt 0.543665 0.462395
vt 0.548319 0.459929
vt 0.553826 0.465563
vt 0.563075 0.481080
vt 0.571443 0.494374
vt 0.579334 0.506348
vt 0.585044 0.517486
vt 0.589808 0.543151
vt 0.590669 0.579963
vt 0.588419 0.593957
vt 0.584120 0.605179
vt 0.578427 0.613366
vt 0.526719 0.504115
vt 0.518411 0.524581
vt 0.515242 0.533240
vt 0.512892 0.544795
vt 0.512156 0.566607
vt 0.518193 0.615025
vt 0.523545 0.627887
vt 0.528127 0.635942
vt 0.534131 0.640849
vt 0.542101 0.644171
vt 0.549151 0.643790
vt 0.559460 0.636045
vt 0.527843 0.505830
vt 0.519875 0.526169
vt 0.517183 0.534502
vt 0.515186 0.545649
vt 0.514621 0.566832
vt 0.520698 0.614472
vt 0.525965 0.626917
vt 0.530210 0.634500
vt 0.535665 0.638968
vt 0.542899 0.642011
vt 0.548092 0.642078
vt 0.557421 0.635184
vt 0.576190 0.612742
vt 0.581707 0.604780
vt 0.585921 0.593963
vt 0.588087 0.580305
vt 0.587319 0.543868
vt 0.582959 0.518941
vt 0.577839 0.508116
vt 0.570310 0.496255
vt 0.561909 0.482958
vt 0.552763 0.467459
vt 0.548076 0.462030
vt 0.544553 0.464281
vt 0.537890 0.481284
vt 0.573085 0.785560
vt 0.571526 0.793342
vt 0.571158 0.795177
vt 0.570757 0.797245
vt 0.570422 0.799039
vt 0.561378 0.654788
vt 0.561842 0.657770
vt 0.562696 0.662693
vt 0.563403 0.666430
vt 0.565568 0.676240
vt 0.568957 0.689465
vt 0.570209 0.694015
vt 0.571688 0.700181
vt 0.572697 0.704647
vt 0.575806 0.718656
vt 0.576318 0.721289
vt 0.576652 0.723765
vt 0.576797 0.725952
vt 0.576808 0.728127
vt 0.576731 0.730392
vt 0.576602 0.733193
vt 0.575670 0.755615
vt 0.575189 0.765704
vt 0.574904 0.770432
vt 0.574604 0.774612
vt 0.514797 0.781227
vt 0.514046 0.788162
vt 0.513858 0.789913
vt 0.513656 0.791946
vt 0.513492 0.793765
vt 0.509884 0.661623
vt 0.510339 0.664678
vt 0.511099 0.669740
vt 0.511659 0.673583
vt 0.513070 0.683515
vt 0.514819 0.696534
vt 0.515350 0.700842
vt 0.515995 0.706495
vt 0.516406 0.710523
vt 0.517400 0.722886
vt 0.517521 0.725148
vt 0.517613 0.727243
vt 0.517673 0.729081
vt 0.517710 0.730918
vt 0.517727 0.732849
vt 0.517719 0.735256
vt 0.517022 0.754920
vt 0.516445 0.763892
vt 0.516097 0.768083
vt 0.515761 0.771760
vt 0.544609 0.520134
vt 0.538340 0.533797
vt 0.536683 0.540102
vt 0.535422 0.547966
vt 0.535827 0.565255
vt 0.538581 0.602380
vt 0.539231 0.606206
vt 0.540681 0.608834
vt 0.542575 0.610545
vt 0.544736 0.611127
vt 0.547150 0.610595
vt 0.549476 0.608956
vt 0.561121 0.593342
vt 0.564906 0.588489
vt 0.567907 0.580734
vt 0.567374 0.573117
vt 0.564683 0.547965
vt 0.562691 0.528166
vt 0.561594 0.521900
vt 0.558041 0.514686
vt 0.555626 0.511145
vt 0.554359 0.509871
vt 0.553022 0.509563
vt 0.551300 0.510166
vt 0.549766 0.511597
vt 0.570108 0.800835
vt 0.513338 0.795652
vt 0.577807 0.806726
vn 0.396573 0.380577 -0.835399
vn 0.365468 -0.229388 -0.902116
vn 0.296641 -0.222155 -0.928790
vn 0.295462 0.413094 -0.861427
vn 0.563582 0.288246 -0.774138
vn 0.475565 -0.253027 -0.842505
vn 0.724732 0.073860 -0.685061
vn 0.596445 -0.278568 -0.752764
vn 0.782067 0.019467 -0.622890
vn 0.653817 -0.269053 -0.707202
vn 0.826922 0.003706 -0.562305
vn 0.688850 -0.266934 -0.673967
vn 0.836366 -0.089712 -0.540781
vn 0.695263 -0.331596 -0.637694
vn 0.784547 -0.361049 -0.504112
vn 0.682408 -0.346656 -0.643544
vn 0.629813 -0.612132 -0.478153
vn 0.681581 -0.287618 -0.672847
vn 0.579989 -0.663771 -0.472251
vn 0.651761 -0.281564 -0.704222
vn 0.508619 -0.728276 -0.459262
vn 0.615755 -0.250824 -0.746949
vn 0.417600 -0.765164 -0.490035
vn 0.542014 -0.237941 -0.805980
vn 0.202428 -0.849430 -0.487332
vn 0.362340 -0.218503 -0.906072
vn 0.149719 -0.835271 -0.529062
vn 0.290692 -0.222734 -0.930531
vn 0.120084 -0.853466 -0.507125
vn 0.278110 -0.259179 -0.924922
vn 0.055110 -0.797923 -0.600235
vn 0.260972 -0.394012 -0.881276
vn -0.064121 -0.731817 -0.678478
vn 0.220531 -0.479299 -0.849493
vn -0.045037 -0.605947 -0.794229
vn 0.196066 -0.455988 -0.868121
vn 0.198998 -0.424958 -0.883069
vn -0.084984 -0.582034 -0.808711
vn -0.157766 -0.390309 -0.907066
vn 0.213784 -0.333532 -0.918179
vn 0.002887 0.041461 -0.999136
vn 0.251355 -0.220696 -0.942398
vn 0.055409 0.286074 -0.956604
vn 0.259656 -0.189235 -0.946979
vn 0.120943 0.431684 -0.893880
vn 0.256665 -0.209740 -0.943468
vn 0.211545 0.475120 -0.854113
vn 0.252745 -0.233496 -0.938935
vn 0.255861 0.490840 -0.832833
vn 0.276442 -0.223580 -0.934662
vn 0.824771 0.404783 -0.394847
vn 0.877622 0.312063 -0.363862
vn 0.924656 0.197231 -0.325748
vn 0.874994 -0.377650 -0.302928
vn 0.594337 -0.757626 -0.269752
vn 0.458551 -0.855510 -0.240488
vn 0.361441 -0.909411 -0.205747
vn 0.263239 -0.945256 -0.192862
vn 0.086345 -0.981793 -0.169199
vn 0.024725 -0.986903 -0.159406
vn -0.014553 -0.988082 -0.153237
vn -0.217325 -0.962446 -0.162689
vn -0.501238 -0.845568 -0.183782
vn -0.669624 -0.714924 -0.201214
vn -0.720322 -0.656662 -0.223452
vn 0.213082 0.930155 -0.299011
vn 0.418029 0.847718 -0.326536
vn 0.722722 0.560606 -0.404220
vn 0.129329 0.946394 -0.295994
vn 0.108659 0.946869 -0.302708
vn 0.060925 0.947345 -0.314366
vn -0.107272 0.943829 -0.312537
vn -0.338054 0.880510 -0.332298
vn -0.569298 0.730335 -0.377506
vn -0.914709 -0.232903 -0.330248
vn -0.096791 -0.817924 -0.567125
vn -0.106313 -0.783932 -0.611676
vn -0.575713 -0.759924 -0.301778
vn -0.588762 -0.786728 -0.185521
vn -0.143066 -0.532534 -0.834230
vn -0.639155 -0.513890 -0.572187
vn -0.149996 -0.085550 -0.984978
vn -0.725518 0.090044 -0.682287
vn -0.078118 0.510641 -0.856238
vn -0.539659 0.679154 -0.497511
vn -0.004907 0.806511 -0.591199
vn -0.350541 0.900788 -0.256323
vn -0.294710 0.945452 -0.138805
vn -0.012839 0.888963 -0.457800
vn -0.199853 0.974632 -0.100752
vn -0.019899 0.930165 -0.366601
vn -0.024780 0.998255 -0.053597
vn 0.035981 0.968106 -0.247944
vn 0.048740 0.996481 -0.068191
vn 0.082618 0.968193 -0.236170
vn 0.251025 0.950048 -0.185458
vn 0.241529 0.906283 -0.346865
vn 0.628496 0.460372 -0.626938
vn 0.700359 0.590054 -0.401663
vn 0.706940 0.202067 -0.677794
vn 0.796304 0.377873 -0.472346
vn 0.713512 0.045126 -0.699188
vn 0.840420 0.267985 -0.471040
vn 0.702800 -0.045261 -0.709946
vn 0.825182 0.140033 -0.547235
vn 0.634644 -0.318465 -0.704136
vn 0.836279 -0.190112 -0.514290
vn 0.569035 -0.468475 -0.675818
vn 0.759243 -0.452204 -0.468040
vn 0.476796 -0.616559 -0.626514
vn 0.618240 -0.687344 -0.381232
vn 0.376968 -0.735412 -0.563085
vn 0.408759 -0.873455 -0.264560
vn 0.204882 -0.877525 -0.433559
vn 0.161540 -0.975630 -0.148494
vn 0.071213 -0.943576 -0.323407
vn -0.002406 -0.996361 -0.085196
vn 0.058747 -0.945200 -0.321163
vn -0.037884 -0.998594 -0.037077
vn -0.122615 -0.991225 -0.049374
vn 0.019142 -0.932914 -0.359591
vn -0.358876 -0.930663 -0.071231
vn -0.040308 -0.893116 -0.448017
vn -0.485262 -0.857042 -0.173204
vn -0.083438 -0.841613 -0.533596
vn 0.500884 0.857279 0.119113
vn 0.586279 0.800711 0.123036
vn 0.793435 0.587519 0.159003
vn 0.825832 -0.539085 0.165494
vn 0.361053 -0.929734 0.072353
vn 0.236780 -0.970404 0.047451
vn 0.186624 -0.981688 0.038222
vn 0.115354 -0.992963 0.026796
vn -0.006870 -0.999963 0.005264
vn -0.041702 -0.999128 -0.001857
vn -0.071578 -0.997397 -0.008719
vn -0.261432 -0.963963 -0.049281
vn -0.524345 -0.844962 -0.105364
vn -0.696065 -0.703582 -0.143059
vn 0.378463 0.920003 0.101787
vn 0.184927 0.981350 0.052485
vn 0.079419 0.996473 0.027082
vn 0.033059 0.999362 0.013554
vn 0.015697 0.999827 0.010008
vn -0.033257 0.999420 0.007344
vn -0.199317 0.979506 -0.029002
vn -0.441866 0.893096 -0.084466
vn -0.677049 0.723745 -0.133409
vn -0.936073 -0.295896 -0.190298
vn -0.740771 -0.654246 -0.152381
vn -0.860417 -0.509425 -0.012994
vn -0.806257 -0.591551 0.003981
vn -0.983843 -0.176732 -0.028618
vn -0.987453 0.155229 -0.028988
vn -0.856553 0.515614 -0.021438
vn -0.616035 0.787679 -0.007873
vn -0.482588 0.875838 0.004109
vn -0.366658 0.930299 0.010303
vn -0.088181 0.996092 0.005066
vn 0.020322 0.999790 -0.002602
vn 0.163551 0.986211 -0.025295
vn 0.699471 0.703151 -0.127747
vn 0.849790 0.499280 -0.169044
vn 0.916466 0.354419 -0.185683
vn 0.931046 0.299701 -0.208165
vn 0.973980 -0.052863 -0.220385
vn 0.902830 -0.380321 -0.200632
vn 0.705705 -0.692129 -0.151454
vn 0.420732 -0.903215 -0.084776
vn 0.121683 -0.992336 -0.021520
vn -0.042583 -0.999067 0.007151
vn -0.074095 -0.997217 0.008292
vn -0.229340 -0.973225 0.015362
vn -0.528090 -0.848835 0.024501
vn -0.738891 -0.673614 0.016870
vn -0.876880 -0.480710 -0.000000
vn -0.825016 -0.565109 -0.000000
vn -0.987764 -0.155954 -0.000000
vn -0.988172 0.153350 -0.000000
vn -0.868475 0.495733 -0.000000
vn -0.637510 0.770442 -0.000000
vn -0.501275 0.865288 -0.000000
vn -0.383107 0.923704 -0.000000
vn -0.091942 0.995764 -0.000000
vn 0.022365 0.999750 0.000000
vn 0.179220 0.983809 0.000000
vn 0.715615 0.698495 0.000000
vn 0.858164 0.513376 0.000000
vn 0.930510 0.366268 -0.000001
vn 0.949187 0.314712 -0.000001
vn 0.999984 0.005707 -0.000001
vn 0.950551 -0.310568 -0.000001
vn 0.769738 -0.638359 -0.000001
vn 0.476426 -0.879214 -0.000000
vn 0.148052 -0.988980 0.000000
vn -0.045063 -0.998984 -0.000000
vn -0.078579 -0.996908 -0.000000
vn -0.243924 -0.969795 -0.000000
vn -0.552934 -0.833225 -0.000000
vn -0.761217 -0.648497 -0.000000
s 1
g exhaust
usemtl initialShadingGroup
f 37/16/1 61/28/2 62/29/3 38/18/4
f 36/15/5 60/27/6 61/28/2 37/16/1
f 35/17/7 59/26/8 60/27/6 36/15/5
f 34/2/9 1/43/10 59/26/8 35/17/7
f 58/1/11 2/44/12 1/43/10 34/2/9
f 57/3/13 3/45/14 2/44/12 58/1/11
f 56/4/15 4/46/16 3/45/14 57/3/13
f 55/5/17 5/47/18 4/46/16 56/4/15
f 54/6/19 6/48/20 5/47/18 55/5/17
f 53/7/21 7/49/22 6/48/20 54/6/19
f 52/8/23 8/50/24 7/49/22 53/7/21
f 51/9/25 75/42/26 8/50/24 52/8/23
f 50/10/27 74/41/28 75/42/26 51/9/25
f 49/11/29 73/40/30 74/41/28 50/10/27
f 48/12/31 72/39/32 73/40/30 49/11/29
f 47/13/33 71/38/34 72/39/32 48/12/31
f 46/14/35 70/37/36 71/38/34 47/13/33
f 69/36/37 70/37/36 46/14/35 45/25/38
f 44/24/39 68/35/40 69/36/37 45/25/38
f 43/23/41 67/34/42 68/35/40 44/24/39
f 42/22/43 66/33/44 67/34/42 43/23/41
f 41/21/45 65/32/46 66/33/44 42/22/43
f 40/20/47 64/31/48 65/32/46 41/21/45
f 39/19/49 63/30/50 64/31/48 40/20/47
f 62/29/3 63/30/50 39/19/49 38/18/4
f 58/1/11 34/2/9 22/101/51 9/125/52
f 57/3/13 58/1/11 9/125/52 10/124/53
f 56/4/15 57/3/13 10/124/53 11/123/54
f 55/5/17 56/4/15 11/123/54 12/122/55
f 13/121/56 54/6/19 55/5/17 12/122/55
f 53/7/21 54/6/19 13/121/56 14/120/57
f 52/8/23 53/7/21 14/120/57 15/119/58
f 51/9/25 52/8/23 15/119/58 16/118/59
f 50/10/27 51/9/25 16/118/59 17/117/60
f 49/11/29 50/10/27 17/117/60 18/116/61
f 48/12/31 49/11/29 18/116/61 19/115/62
f 47/13/33 48/12/31 19/115/62 20/114/63
f 46/14/35 47/13/33 20/114/63 21/113/64
f 46/14/35 21/113/64 33/112/65 45/25/38
f 36/15/5 37/16/1 25/104/66 24/103/67
f 35/17/7 36/15/5 24/103/67 23/102/68
f 34/2/9 35/17/7 23/102/68 22/101/51
f 37/16/1 38/18/4 26/105/69 25/104/66
f 38/18/4 39/19/49 27/106/70 26/105/69
f 39/19/49 40/20/47 28/107/71 27/106/70
f 40/20/47 41/21/45 29/108/72 28/107/71
f 41/21/45 42/22/43 30/109/73 29/108/72
f 42/22/43 43/23/41 31/110/74 30/109/73
f 43/23/41 44/24/39 32/111/75 31/110/74
f 44/24/39 45/25/38 33/112/65 32/111/75
s 2
f 1/43/76 2/44/77 77/200/78 76/176/79
f 2/44/77 3/45/80 78/199/81 77/200/78
f 3/45/80 4/46/82 79/198/83 78/199/81
f 79/198/83 4/46/82 5/47/84 80/197/85
f 80/197/85 5/47/84 6/48/86 81/196/87
f 82/195/88 81/196/87 6/48/86 7/49/89
f 83/194/90 82/195/88 7/49/89 8/50/91
f 84/193/92 83/194/90 8/50/91 75/42/93
f 85/192/94 84/193/92 75/42/93 74/41/95
f 86/191/96 85/192/94 74/41/95 73/40/97
f 73/40/97 72/39/98 87/190/99 86/191/96
f 72/39/98 71/38/100 88/189/101 87/190/99
f 71/38/100 70/37/102 89/188/103 88/189/101
f 89/188/103 70/37/102 69/36/104 90/187/105
f 90/187/105 69/36/104 68/35/106 91/186/107
f 68/35/106 67/34/108 92/185/109 91/186/107
f 67/34/108 66/33/110 93/184/111 92/185/109
f 66/33/110 65/32/112 94/183/113 93/184/111
f 65/32/112 64/31/114 95/182/115 94/183/113
f 64/31/114 63/30/116 96/181/117 95/182/115
f 96/181/117 63/30/116 62/29/118 97/180/119
f 98/179/120 97/180/119 62/29/118 61/28/121
f 99/178/122 98/179/120 61/28/121 60/27/123
f 100/177/124 99/178/122 60/27/123 59/26/125
f 76/176/79 100/177/124 59/26/125 1/43/76
s 1
f 22/101/51 114/89/126 101/76/127 9/125/52
f 101/76/127 102/77/128 10/124/53 9/125/52
f 102/77/128 103/78/129 11/123/54 10/124/53
f 103/78/129 104/79/130 12/122/55 11/123/54
f 104/79/130 105/80/131 13/121/56 12/122/55
f 105/80/131 106/81/132 14/120/57 13/121/56
f 106/81/132 107/82/133 15/119/58 14/120/57
f 107/82/133 108/83/134 16/118/59 15/119/58
f 108/83/134 109/84/135 17/117/60 16/118/59
f 109/84/135 110/85/136 18/116/61 17/117/60
f 110/85/136 111/86/137 19/115/62 18/116/61
f 111/86/137 112/87/138 20/114/63 19/115/62
f 112/87/138 113/88/139 21/113/64 20/114/63
f 115/90/140 114/89/126 22/101/51 23/102/68
f 116/91/141 115/90/140 23/102/68 24/103/67
f 117/92/142 116/91/141 24/103/67 25/104/66
f 118/93/143 117/92/142 25/104/66 26/105/69
f 119/94/144 118/93/143 26/105/69 27/106/70
f 120/95/145 119/94/144 27/106/70 28/107/71
f 121/96/146 120/95/145 28/107/71 29/108/72
f 122/97/147 121/96/146 29/108/72 30/109/73
f 123/98/148 122/97/147 30/109/73 31/110/74
f 124/99/149 123/98/148 31/110/74 32/111/75
f 125/100/150 124/99/149 32/111/75 33/112/65
f 113/88/139 125/100/150 33/112/65 21/113/64
s 2
f 76/51/79 77/52/78 127/127/151 126/126/152
f 77/52/78 78/53/81 128/128/153 127/127/151
f 78/53/81 79/54/83 129/129/154 128/128/153
f 79/54/83 80/55/85 130/130/155 129/129/154
f 80/55/85 81/203/87 131/201/156 130/130/155
f 81/56/87 82/57/88 132/132/157 131/131/156
f 82/57/88 83/58/90 133/133/158 132/132/157
f 83/58/90 84/59/92 134/134/159 133/133/158
f 84/59/92 85/60/94 135/135/160 134/134/159
f 85/60/94 86/61/96 136/136/161 135/135/160
f 86/61/96 87/62/99 137/137/162 136/136/161
f 87/62/99 88/63/101 138/138/163 137/137/162
f 88/63/101 89/64/103 139/139/164 138/138/163
f 139/139/164 89/64/103 90/65/105 140/140/165
f 90/65/105 91/66/107 141/141/166 140/140/165
f 91/66/107 92/67/109 142/142/167 141/141/166
f 92/67/109 93/68/111 143/143/168 142/142/167
f 93/68/111 94/69/113 144/144/169 143/143/168
f 94/69/113 95/70/115 145/145/170 144/144/169
f 95/70/115 96/71/117 146/146/171 145/145/170
f 146/146/171 96/71/117 97/72/119 147/147/172
f 97/72/119 98/73/120 148/148/173 147/147/172
f 98/73/120 99/74/122 149/149/174 148/148/173
f 99/74/122 100/75/124 150/150/175 149/149/174
f 100/75/124 76/51/79 126/126/152 150/150/175
f 126/126/152 127/127/151 152/152/176 151/151/177
f 127/127/151 128/128/153 153/153/178 152/152/176
f 128/128/153 129/129/154 154/154/179 153/153/178
f 129/129/154 130/130/155 155/155/180 154/154/179
f 130/130/155 131/201/156 156/202/181 155/155/180
f 131/131/156 132/132/157 157/157/182 156/156/181
f 132/132/157 133/133/158 158/158/183 157/157/182
f 133/133/158 134/134/159 159/159/184 158/158/183
f 134/134/159 135/135/160 160/160/185 159/159/184
f 135/135/160 136/136/161 161/161/186 160/160/185
f 136/136/161 137/137/162 162/162/187 161/161/186
f 137/137/162 138/138/163 163/163/188 162/162/187
f 138/138/163 139/139/164 164/164/189 163/163/188
f 165/165/190 164/164/189 139/139/164 140/140/165
f 140/140/165 141/141/166 166/166/191 165/165/190
f 141/141/166 142/142/167 167/167/192 166/166/191
f 142/142/167 143/143/168 168/168/193 167/167/192
f 143/143/168 144/144/169 169/169/194 168/168/193
f 144/144/169 145/145/170 170/170/195 169/169/194
f 145/145/170 146/146/171 171/171/196 170/170/195
f 172/172/197 171/171/196 146/146/171 147/147/172
f 147/147/172 148/148/173 173/173/198 172/172/197
f 148/148/173 149/149/174 174/174/199 173/173/198
f 149/149/174 150/150/175 175/175/200 174/174/199
f 150/150/175 126/126/152 151/151/177 175/175/200
