# This file uses centimeters as units for non-parametric coordinates.

mtllib gas_door.mtl
g default
v 93.781906 166.845505 -400.963440
v 91.366501 170.199646 -401.217285
v 93.988739 166.891968 -395.520935
v 91.757767 170.344589 -391.297668
v 91.071693 169.832703 -407.489197
v 90.994850 169.389236 -410.584015
v 90.952454 169.044769 -412.104675
v 87.810585 175.489288 -401.423126
v 91.619141 170.335709 -395.568878
v 87.344482 175.315384 -407.372162
v 88.254120 175.509796 -395.608215
v 87.158264 175.124573 -409.953430
v 88.533867 175.364349 -392.006073
v 87.042206 174.895203 -411.543457
v 89.063461 174.424408 -391.609314
v 88.813835 174.483612 -395.585358
v 88.431091 174.375580 -401.407104
v 88.001038 174.125443 -407.489807
v 87.838684 173.886459 -410.167847
v 87.726349 173.602783 -411.949371
v 86.943413 177.255035 -401.301575
v 86.459137 177.149002 -407.117188
v 86.386490 176.886856 -409.037567
v 87.460266 177.120956 -395.735992
v 86.436844 176.507050 -410.067566
v 87.894897 176.547409 -393.206360
v 94.074432 166.896988 -392.606750
v 91.725342 170.361526 -392.667297
v 89.005005 174.440491 -392.963257
v 88.459457 175.415237 -393.290680
v 87.715996 176.843491 -393.926941
v 88.164490 176.046036 -392.541199
v 88.097969 176.116623 -393.584595
v 87.857346 176.312073 -395.661530
v 87.360359 176.413177 -401.354126
v 86.876900 176.283173 -407.250275
v 86.749969 176.057709 -409.442474
v 86.681290 175.755676 -410.992126
v 94.109741 166.807007 -391.306946
v 93.516205 166.566406 -407.120422
v 93.359947 166.138641 -410.487427
v 93.285072 165.748016 -412.006775
v 94.239655 161.802002 -400.857666
v 93.988480 161.817108 -406.819031
v 94.383011 161.854004 -395.391113
v 94.415665 162.306549 -393.359436
v 94.396996 162.929016 -392.497437
v 93.830887 162.111694 -409.385834
v 93.719391 162.650940 -410.546661
v 93.495483 164.371246 -411.762390
v 93.623932 164.531433 -410.038635
v 93.784386 164.740433 -406.994293
v 94.029320 164.982803 -400.885437
v 94.200584 165.088181 -395.545898
v 94.276733 165.108414 -392.780914
v 94.278992 165.102631 -391.431702
v 94.342194 163.784027 -391.859558
v 94.366257 163.646530 -393.092468
v 94.309319 163.555939 -395.525116
v 94.152451 163.388809 -400.910645
v 93.922226 163.184860 -406.872131
v 93.764488 163.148285 -409.633209
v 93.610519 163.465637 -411.324707
v 93.691002 166.657959 -391.231750
v 94.000198 165.028564 -391.368591
v 94.049416 163.680145 -391.812561
v 94.139771 162.793442 -392.449036
v 94.181747 162.180817 -393.325562
v 94.408051 161.987640 -394.371033
v 94.343826 163.571045 -394.173401
v 94.245354 165.042175 -394.116852
v 94.029129 166.903992 -394.072021
v 91.657318 170.373779 -394.144714
v 88.905235 174.460205 -394.381927
v 88.354294 175.464844 -394.501587
v 87.951965 176.265625 -394.667267
v 87.571411 177.040649 -394.777405
v 94.164650 161.843887 -394.341187
v 94.134201 161.716125 -395.401245
v 93.997406 161.650818 -400.868805
v 93.704636 161.678970 -406.818634
v 86.384369 177.052750 -408.196045
v 86.807007 176.158188 -408.468536
v 87.244667 175.211273 -408.806976
v 87.913483 173.994278 -408.978302
v 91.039932 169.594666 -409.210480
v 93.445679 166.337219 -408.993347
v 93.696701 164.652222 -408.695190
v 93.847633 163.067581 -408.413208
v 93.911263 161.885345 -408.200562
v 93.628876 161.745026 -408.198669
v 93.570007 161.970367 -409.396057
v 93.464981 162.515396 -410.562531
v 93.364708 163.355103 -411.384155
v 93.250366 164.265259 -411.814362
v 93.048332 165.648926 -412.078796
v 90.702545 168.912231 -412.167847
v 87.440933 173.482727 -411.992981
v 86.753754 174.792694 -411.601257
v 86.381073 175.676819 -411.043091
v 86.135139 176.446014 -410.098969
v 86.080872 176.859451 -409.041229
v 86.074806 176.997040 -408.191467
v 86.157806 177.107422 -407.098450
v 86.633583 177.213470 -401.285736
v 91.512337 170.233124 -391.221313
v 88.805695 174.331451 -391.522858
v 88.273613 175.266083 -391.919403
v 87.876984 175.984695 -392.479431
v 87.623535 176.495804 -393.140747
v 87.425674 176.817200 -393.878235
v 87.287521 177.010513 -394.728516
v 87.145905 177.084976 -395.696899
v 86.730850 175.763519 -410.842590
v 87.099770 174.916290 -411.377258
v 87.780289 173.642929 -411.777222
v 90.977104 169.093521 -411.951599
v 93.305519 165.789368 -411.862854
v 93.525528 164.405426 -411.610657
v 93.636566 163.469803 -411.175537
v 86.522751 176.406036 -410.024628
v 86.470650 176.756577 -409.072235
v 86.488007 176.924042 -408.223541
v 86.559158 177.018311 -407.137207
v 87.047562 177.122437 -401.314270
v 87.548660 176.988770 -395.744751
v 87.648575 176.925659 -394.786926
v 87.796539 176.727859 -393.915833
v 94.423248 162.474854 -393.349060
v 94.412788 162.190979 -394.364838
v 94.393883 162.072815 -395.401459
v 94.241714 162.009399 -400.857971
v 94.007195 162.011108 -406.822968
v 93.929718 162.061447 -408.219849
v 93.845146 162.266464 -409.400513
v 93.737541 162.791962 -410.476227
v 87.951248 176.471985 -393.306976
v 88.193771 176.035217 -392.692871
v 88.550896 175.372208 -392.194794
v 89.079346 174.428925 -391.807251
v 91.771584 170.360718 -391.491486
v 94.108353 166.878510 -391.492065
v 94.308327 165.112335 -391.621521
v 94.383087 163.802307 -392.036987
v 94.410881 163.061874 -392.609131
vt 0.552530 0.945320
vt 0.562129 0.944340
vt 0.562584 0.957558
vt 0.552791 0.958088
vt 0.553019 0.964902
vt 0.562770 0.964336
vt 0.562820 0.967078
vt 0.553075 0.967484
vt 0.551951 0.931177
vt 0.561150 0.929837
vt 0.560492 0.925949
vt 0.551444 0.927048
vt 0.551002 0.923819
vt 0.559928 0.922866
vt 0.559123 0.919817
vt 0.550209 0.920921
vt 0.550125 0.920615
vt 0.559029 0.919455
vt 0.573986 0.943346
vt 0.573289 0.929117
vt 0.576465 0.929220
vt 0.576967 0.943178
vt 0.574310 0.957030
vt 0.577052 0.956879
vt 0.576171 0.925876
vt 0.572930 0.925657
vt 0.572642 0.922895
vt 0.575938 0.923217
vt 0.576699 0.964893
vt 0.574214 0.965894
vt 0.574220 0.963187
vt 0.576801 0.962332
vt 0.575414 0.919931
vt 0.572016 0.919160
vt 0.571984 0.918708
vt 0.575428 0.919508
vt 0.579383 0.943243
vt 0.578987 0.929377
vt 0.580876 0.929553
vt 0.581207 0.943267
vt 0.580142 0.925025
vt 0.580609 0.926995
vt 0.578637 0.926530
vt 0.578347 0.924273
vt 0.579154 0.956686
vt 0.580902 0.956437
vt 0.579509 0.922744
vt 0.579209 0.922878
vt 0.577585 0.921076
vt 0.577613 0.920709
vt 0.579533 0.962223
vt 0.578408 0.963678
vt 0.578624 0.961594
vt 0.580204 0.960784
vt 0.552919 0.961483
vt 0.562742 0.960886
vt 0.574257 0.959859
vt 0.576932 0.959488
vt 0.579025 0.959039
vt 0.580730 0.958714
vt 0.547804 0.931446
vt 0.548111 0.945530
vt 0.544337 0.945454
vt 0.544305 0.931623
vt 0.548493 0.958155
vt 0.544839 0.958309
vt 0.544985 0.961547
vt 0.548492 0.961543
vt 0.548777 0.964687
vt 0.545283 0.964122
vt 0.548916 0.967404
vt 0.545786 0.966601
vt 0.547718 0.927698
vt 0.544240 0.928204
vt 0.544570 0.925589
vt 0.547531 0.924807
vt 0.547312 0.921509
vt 0.545386 0.922390
vt 0.545388 0.922076
vt 0.547242 0.921184
vt 0.543949 0.965349
vt 0.542436 0.963646
vt 0.541632 0.961209
vt 0.541265 0.958692
vt 0.541068 0.945543
vt 0.541621 0.931599
vt 0.541987 0.928481
vt 0.542651 0.925963
vt 0.543917 0.923785
vt 0.543628 0.923612
vt 0.552942 0.967930
vt 0.562827 0.967543
vt 0.562973 0.968236
vt 0.552777 0.968664
vt 0.548917 0.967872
vt 0.548709 0.968590
vt 0.545759 0.967052
vt 0.545320 0.967727
vt 0.543035 0.966123
vt 0.543643 0.965642
vt 0.541392 0.963933
vt 0.542024 0.963645
vt 0.541130 0.961214
vt 0.540402 0.961390
vt 0.540725 0.958727
vt 0.539993 0.958717
vt 0.540571 0.945534
vt 0.539847 0.945475
vt 0.541162 0.931578
vt 0.540395 0.931490
vt 0.541582 0.928484
vt 0.540847 0.928331
vt 0.542312 0.925960
vt 0.541677 0.925722
vt 0.543082 0.923286
vt 0.544998 0.921603
vt 0.546943 0.920667
vt 0.550044 0.920007
vt 0.559042 0.918746
vt 0.572149 0.917947
vt 0.575716 0.918775
vt 0.578084 0.920084
vt 0.580114 0.922285
vt 0.581257 0.924797
vt 0.580517 0.925070
vt 0.581026 0.927022
vt 0.581809 0.926853
vt 0.581282 0.929573
vt 0.582052 0.929515
vt 0.581621 0.943274
vt 0.582420 0.943248
vt 0.574246 0.966366
vt 0.574516 0.967057
vt 0.576725 0.965342
vt 0.577079 0.965995
vt 0.578482 0.964038
vt 0.579042 0.964560
vt 0.580368 0.962858
vt 0.579765 0.962459
vt 0.580540 0.960754
vt 0.581270 0.961006
vt 0.581067 0.958728
vt 0.581795 0.958887
vt 0.581289 0.956443
vt 0.582114 0.956509
vn 0.823298 0.566012 -0.042559
vn 0.805285 0.590995 -0.047335
vn 0.811079 0.583770 -0.036937
vn 0.829008 0.558289 -0.032529
vn 0.834263 0.550922 -0.022119
vn 0.818888 0.573346 -0.026403
vn 0.820579 0.570959 -0.025602
vn 0.835312 0.549373 -0.021062
vn 0.810816 0.579900 -0.079337
vn 0.793843 0.602450 -0.082866
vn 0.793199 0.599241 -0.108375
vn 0.811151 0.574554 -0.109191
vn 0.813889 0.563438 -0.141855
vn 0.795535 0.590708 -0.134864
vn 0.798595 0.582535 -0.151321
vn 0.817626 0.552989 -0.160282
vn 0.780751 0.508571 -0.363021
vn 0.755279 0.538915 -0.372994
vn 0.853483 0.515116 -0.078885
vn 0.850375 0.518727 -0.088228
vn 0.878898 0.468687 -0.088719
vn 0.881142 0.465902 -0.080774
vn 0.860236 0.506394 -0.059666
vn 0.884203 0.462683 -0.064105
vn 0.876087 0.472213 -0.097400
vn 0.847694 0.521344 -0.098054
vn 0.846626 0.521556 -0.105845
vn 0.874200 0.474437 -0.103363
vn 0.883959 0.464414 -0.054190
vn 0.864479 0.500243 -0.049322
vn 0.864834 0.499460 -0.051006
vn 0.885731 0.460771 -0.056301
vn 0.869014 0.483204 -0.106440
vn 0.842703 0.526846 -0.110837
vn 0.728951 0.521871 -0.443035
vn 0.722217 0.543474 -0.427830
vn 0.864479 0.500243 -0.049322
vn 0.864834 0.499460 -0.051006
vn 0.857077 0.510804 -0.067071
vn 0.860236 0.506394 -0.059666
vn 0.850375 0.518727 -0.088228
vn 0.846626 0.521556 -0.105845
vn 0.847694 0.521344 -0.098054
vn 0.728951 0.521871 -0.443035
vn 0.842703 0.526846 -0.110837
vn 0.900903 0.426277 -0.081616
vn 0.899382 0.428080 -0.088655
vn 0.909990 0.405121 -0.088285
vn 0.910744 0.404745 -0.082022
vn 0.906139 0.411342 -0.098541
vn 0.908415 0.407073 -0.095258
vn 0.897038 0.431302 -0.096449
vn 0.894919 0.434674 -0.100887
vn 0.902090 0.426284 -0.067201
vn 0.911883 0.404612 -0.068982
vn 0.706265 0.651068 -0.278031
vn 0.903147 0.417163 -0.101492
vn 0.889958 0.444104 -0.103668
vn 0.705206 0.605356 -0.369092
vn 0.906870 0.417408 -0.057951
vn 0.898363 0.435476 -0.057485
vn 0.900587 0.430561 -0.059667
vn 0.909645 0.410574 -0.063050
vn 0.832707 0.553145 -0.025090
vn 0.816144 0.577101 -0.029380
vn 0.863306 0.501854 -0.053343
vn 0.863306 0.501854 -0.053343
vn 0.885820 0.460234 -0.059232
vn 0.902755 0.425373 -0.063970
vn 0.911282 0.406367 -0.066571
vn 0.885731 0.460771 -0.056301
vn 0.900587 0.430561 -0.059667
vn 0.898363 0.435476 -0.057485
vn 0.883959 0.464414 -0.054190
vn 0.885820 0.460234 -0.059232
vn 0.902755 0.425373 -0.063970
vn 0.884203 0.462683 -0.064105
vn 0.882783 0.464458 -0.070524
vn 0.901819 0.425959 -0.072679
vn 0.902090 0.426284 -0.067201
vn 0.878898 0.468687 -0.088719
vn 0.899382 0.428080 -0.088655
vn 0.897038 0.431302 -0.096449
vn 0.876087 0.472213 -0.097400
vn 0.874200 0.474437 -0.103363
vn 0.894919 0.434674 -0.100887
vn 0.722217 0.543474 -0.427830
vn 0.705206 0.605356 -0.369092
vn 0.889958 0.444104 -0.103668
vn 0.869014 0.483204 -0.106440
vn 0.994733 0.089995 -0.049056
vn 0.995315 0.087179 -0.041797
vn 0.996489 0.073710 -0.039717
vn 0.995926 0.077022 -0.046890
vn 0.996420 0.078806 -0.030620
vn 0.997527 0.064380 -0.028201
vn 0.997738 0.061920 -0.026166
vn 0.996765 0.075289 -0.028133
vn 0.996877 0.074007 -0.027554
vn 0.997732 0.062161 -0.025841
vn 0.996925 0.073444 -0.027313
vn 0.997606 0.064001 -0.026195
vn 0.994113 0.091110 -0.058638
vn 0.995225 0.079025 -0.057292
vn 0.994744 0.080449 -0.063339
vn 0.993771 0.090319 -0.065281
vn 0.993467 0.090860 -0.069053
vn 0.994324 0.082621 -0.067034
vn 0.966612 -0.050761 -0.251165
vn 0.966784 0.031601 -0.253636
vn 0.990931 0.112317 -0.073767
vn 0.993467 0.090860 -0.069053
vn 0.966784 0.031601 -0.253636
vn 0.969788 0.077157 -0.231428
vn 0.991567 0.114233 -0.061196
vn 0.994113 0.091110 -0.058638
vn 0.993771 0.090319 -0.065281
vn 0.990929 0.114889 -0.069714
vn 0.992297 0.112779 -0.051254
vn 0.993126 0.108534 -0.043824
vn 0.995315 0.087179 -0.041797
vn 0.994733 0.089995 -0.049056
vn 0.994756 0.097124 -0.032063
vn 0.996420 0.078806 -0.030620
vn 0.995204 0.093587 -0.028469
vn 0.996877 0.074007 -0.027554
vn 0.996765 0.075289 -0.028133
vn 0.995144 0.093947 -0.029361
vn 0.995292 0.092870 -0.027738
vn 0.996925 0.073444 -0.027313
vn 0.997606 0.064001 -0.026195
vn 0.998164 0.055069 -0.025234
vn 0.998251 0.053618 -0.024881
vn 0.997732 0.062161 -0.025841
vn 0.998240 0.053733 -0.025102
vn 0.997738 0.061920 -0.026166
vn 0.997157 0.068137 -0.032174
vn 0.997527 0.064380 -0.028201
vn 0.998073 0.056003 -0.026713
vn 0.997737 0.059928 -0.030505
vn 0.995926 0.077022 -0.046890
vn 0.996624 0.068483 -0.045287
vn 0.995946 0.070673 -0.055656
vn 0.995402 0.073125 -0.061872
vn 0.994744 0.080449 -0.063339
vn 0.995225 0.079025 -0.057292
vn 0.994931 0.076920 -0.064769
vn 0.967090 -0.138472 -0.213455
vn 0.966612 -0.050761 -0.251165
vn 0.994324 0.082621 -0.067034
vn 0.347695 0.211011 0.913555
vn 0.334628 0.226820 0.914646
vn 0.077682 0.050540 0.995696
vn 0.081111 0.037389 0.996004
vn 0.383047 -0.151755 0.911178
vn 0.437716 -0.031881 0.898548
vn 0.097412 -0.071881 0.992645
vn 0.096253 -0.204272 0.974171
vn 0.396424 -0.370661 0.839916
vn 0.383047 -0.151755 0.911178
vn 0.096253 -0.204272 0.974171
vn 0.144470 -0.440341 0.886131
vn 0.396424 -0.370661 0.839916
vn 0.144470 -0.440341 0.886131
vn 0.268140 -0.686778 0.675601
vn 0.499986 -0.589162 0.634746
vn 0.268140 -0.686778 0.675601
vn 0.358877 -0.837345 0.412384
vn 0.563199 -0.732866 0.381726
vn 0.499986 -0.589162 0.634746
vn 0.577901 -0.798114 0.170423
vn 0.374443 -0.906877 0.193307
vn 0.601759 -0.798433 0.019771
vn 0.377239 -0.925707 0.027516
vn 0.616774 -0.787076 -0.010081
vn 0.387954 -0.921675 -0.002654
vn 0.565901 -0.823340 -0.043214
vn 0.320857 -0.946516 -0.034027
vn 0.540022 -0.832231 -0.125575
vn 0.296336 -0.946984 -0.124125
vn 0.535831 -0.789626 -0.298958
vn 0.311266 -0.897938 -0.311159
vn 0.302025 -0.773443 -0.557285
vn 0.506524 -0.680083 -0.530020
vn 0.302025 -0.773443 -0.557285
vn 0.257671 -0.551756 -0.793203
vn 0.257671 -0.551756 -0.793203
vn 0.196432 -0.296712 -0.934546
vn 0.196432 -0.296712 -0.934546
vn 0.168094 -0.165178 -0.971834
vn 0.089832 0.002400 -0.995954
vn 0.062315 0.020107 -0.997854
vn -0.085334 0.139805 -0.986495
vn -0.085334 0.139805 -0.986495
vn -0.151943 0.339220 -0.928355
vn -0.151943 0.339220 -0.928355
vn -0.216305 0.615674 -0.757732
vn -0.216305 0.615674 -0.757732
vn -0.260927 0.808265 -0.527849
vn -0.011247 0.866675 -0.498746
vn -0.260927 0.808265 -0.527849
vn -0.295063 0.914208 -0.277779
vn -0.006343 0.960542 -0.278064
vn -0.033956 0.991145 -0.128367
vn -0.326930 0.938333 -0.112466
vn 0.004921 0.998990 -0.044660
vn -0.334280 0.942305 -0.017817
vn 0.012146 0.999836 -0.013424
vn -0.335460 0.941929 0.015393
vn 0.271022 0.398258 0.876320
vn 0.000592 0.279557 0.960129
vn 0.271022 0.398258 0.876320
vn 0.190044 0.563237 0.804144
vn -0.082919 0.467915 0.879875
vn 0.000592 0.279557 0.960129
vn 0.190044 0.563237 0.804144
vn 0.103572 0.726906 0.678882
vn -0.158272 0.659500 0.734854
vn -0.082919 0.467915 0.879875
vn -0.200332 0.814867 0.543929
vn -0.158272 0.659500 0.734854
vn 0.103572 0.726906 0.678882
vn 0.074639 0.867959 0.490996
vn 0.061371 0.953443 0.295263
vn -0.224732 0.913966 0.337879
vn -0.200332 0.814867 0.543929
vn 0.074639 0.867959 0.490996
vn 0.046132 0.988191 0.146117
vn -0.254086 0.950123 0.180848
vn 0.002393 0.998894 0.046954
vn -0.310845 0.947426 0.075896
vn 0.889958 0.444104 -0.103668
vn 0.903147 0.417163 -0.101492
vn 0.869014 0.483204 -0.106440
vn 0.889958 0.444104 -0.103668
vn 0.842703 0.526846 -0.110837
vn 0.869014 0.483204 -0.106440
vn 0.810870 0.572872 -0.119618
vn 0.842703 0.526846 -0.110837
vn 0.817626 0.552989 -0.160282
vn 0.993467 0.090860 -0.069053
vn 0.990931 0.112317 -0.073767
vn 0.994324 0.082621 -0.067034
vn 0.993467 0.090860 -0.069053
vn 0.994931 0.076920 -0.064769
vn 0.994324 0.082621 -0.067034
vn 0.906139 0.411342 -0.098541
vn 0.903147 0.417163 -0.101492
vn 0.908415 0.407073 -0.095258
vn 0.909990 0.405121 -0.088285
vn 0.910744 0.404745 -0.082022
vn 0.911883 0.404612 -0.068982
vn 0.911282 0.406367 -0.066571
vn 0.909645 0.410574 -0.063050
vn 0.906870 0.417408 -0.057951
vn 0.998251 0.053618 -0.024881
vn 0.998164 0.055069 -0.025234
vn 0.998240 0.053733 -0.025102
vn 0.998073 0.056003 -0.026713
vn 0.997737 0.059928 -0.030505
vn 0.996624 0.068483 -0.045287
vn 0.995946 0.070673 -0.055656
vn 0.995402 0.073125 -0.061872
vn 0.994931 0.076920 -0.064769
vn 0.898363 0.435476 -0.057485
vn 0.906870 0.417408 -0.057951
vn 0.883959 0.464414 -0.054190
vn 0.898363 0.435476 -0.057485
vn 0.864479 0.500243 -0.049322
vn 0.883959 0.464414 -0.054190
vn 0.837584 0.544687 -0.042063
vn 0.864479 0.500243 -0.049322
vn 0.835312 0.549373 -0.021062
vn 0.996925 0.073444 -0.027313
vn 0.995292 0.092870 -0.027738
vn 0.997606 0.064001 -0.026195
vn 0.996925 0.073444 -0.027313
vn 0.998164 0.055069 -0.025234
vn 0.997606 0.064001 -0.026195
s 1
g gas_door group7
usemtl initialShadingGroup
f 1/1/1 2/2/2 9/3/3 3/4/4
f 27/5/5 28/6/6 141/7/7 142/8/8
f 2/2/2 1/1/1 40/9/9 5/10/10
f 86/11/11 87/12/12 41/13/13 6/14/14
s 3
f 117/15/15 118/16/16 42/17/17 7/18/18
s 4
f 17/19/19 18/20/20 10/21/21 8/22/22
f 16/23/23 17/19/19 8/22/22 11/24/24
f 84/25/25 85/26/26 19/27/27 12/28/28
f 139/29/29 140/30/30 29/31/31 30/32/32
s 6
f 115/33/33 116/34/34 20/35/35 14/36/36
s 1
f 140/30/37 141/7/7 28/6/6 29/31/38
f 9/3/3 2/2/2 17/19/39 16/23/40
f 2/2/2 5/10/10 18/20/41 17/19/39
f 6/14/14 19/27/42 85/26/43 86/11/11
s 3
f 20/35/44 116/34/45 117/15/15 7/18/18
s 7
f 35/37/46 36/38/47 124/39/48 125/40/49
f 122/41/50 123/42/51 83/43/52 37/44/53
f 34/45/54 35/37/46 125/40/49 126/46/55
s 8
f 25/47/56 121/48/57 114/49/58 38/50/59
s 7
f 137/51/60 138/52/61 33/53/62 128/54/63
s 1
f 72/55/64 73/56/65 28/6/6 27/5/5
f 29/31/38 28/6/6 73/56/65 74/57/66
s 4
f 30/32/32 29/31/31 74/57/67 75/58/68
s 7
f 76/59/69 127/60/70 128/54/63 33/53/62
s 10
f 30/32/71 33/53/72 138/52/73 139/29/74
f 75/58/75 76/59/76 33/53/72 30/32/71
f 11/24/77 8/22/78 35/37/79 34/45/80
f 8/22/78 10/21/81 36/38/82 35/37/79
f 83/43/83 84/25/84 12/28/85 37/44/86
s 12
f 14/36/87 38/50/88 114/49/89 115/33/90
s 13
f 52/61/91 53/62/92 60/63/93 61/64/94
f 53/62/92 54/65/95 59/66/96 60/63/93
f 70/67/97 71/68/98 55/69/99 58/70/100
f 143/71/101 144/72/102 58/70/100 55/69/99
f 88/73/103 89/74/104 62/75/105 51/76/106
s 14
f 119/77/107 120/78/108 63/79/109 50/80/110
s 15
f 118/16/111 119/77/112 50/80/113 42/17/114
s 16
f 87/12/115 88/73/116 51/76/117 41/13/118
f 40/9/119 1/1/120 53/62/121 52/61/122
f 1/1/120 3/4/123 54/65/124 53/62/121
f 27/5/125 55/69/126 71/68/127 72/55/128
f 142/8/129 143/71/130 55/69/126 27/5/125
s 19
f 144/72/131 145/81/132 129/82/133 58/70/134
f 129/82/133 130/83/135 70/67/136 58/70/134
f 60/63/137 59/66/138 131/84/139 132/85/140
f 61/64/141 60/63/137 132/85/140 133/86/142
f 134/87/143 135/88/144 62/75/145 89/74/146
s 21
f 136/89/147 49/90/148 63/79/149 120/78/150
s 22
f 39/91/151 4/92/152 106/93/153 64/94/154
s 23
f 56/95/155 39/91/156 64/94/157 65/96/158
s 24
f 57/97/159 56/95/160 65/96/161 66/98/162
s 25
f 57/97/163 66/98/164 67/99/165 47/100/166
s 26
f 67/99/167 68/101/168 46/102/169 47/100/170
s 19
f 59/66/138 70/67/136 130/83/135 131/84/139
s 13
f 54/65/95 71/68/98 70/67/97 59/66/96
s 16
f 72/55/128 71/68/127 54/65/124 3/4/123
s 1
f 3/4/4 9/3/3 73/56/65 72/55/64
f 74/57/66 73/56/65 9/3/3 16/23/40
s 4
f 75/58/68 74/57/67 16/23/23 11/24/24
s 10
f 34/45/80 76/59/76 75/58/75 11/24/77
s 7
f 126/46/55 127/60/70 76/59/69 34/45/54
s 26
f 69/103/171 46/102/169 68/101/168 78/104/172
f 45/105/173 69/103/171 78/104/172 79/106/174
f 43/107/175 45/105/173 79/106/174 80/108/176
f 44/109/177 43/107/175 80/108/176 81/110/178
s 7
f 36/38/47 83/43/52 123/42/51 124/39/48
s 10
f 10/21/81 84/25/84 83/43/83 36/38/82
s 4
f 18/20/20 85/26/26 84/25/25 10/21/21
s 1
f 86/11/11 85/26/43 18/20/41 5/10/10
f 5/10/10 40/9/9 87/12/12 86/11/11
s 16
f 52/61/122 88/73/116 87/12/115 40/9/119
s 13
f 61/64/94 89/74/104 88/73/103 52/61/91
s 19
f 133/86/142 134/87/143 89/74/146 61/64/141
s 26
f 90/111/179 44/109/177 81/110/178 91/112/180
f 48/113/181 90/111/179 91/112/180 92/114/182
f 92/114/182 93/115/183 49/90/184 48/113/181
s 21
f 93/115/185 94/116/186 63/79/149 49/90/148
s 14
f 50/80/110 63/79/109 94/116/187 95/117/188
s 15
f 42/17/114 50/80/113 95/117/189 96/118/190
s 3
f 7/18/18 42/17/17 96/118/191 97/119/192
f 20/35/44 7/18/18 97/119/192 98/120/193
s 6
f 14/36/36 20/35/35 98/120/194 99/121/195
s 12
f 38/50/88 14/36/87 99/121/196 100/122/197
s 8
f 38/50/59 100/122/198 101/123/199 25/47/56
s 27
f 25/47/200 101/123/201 102/124/202 23/125/203
f 82/126/204 23/125/203 102/124/202 103/127/205
f 22/128/206 82/126/204 103/127/205 104/129/207
f 21/130/208 22/128/206 104/129/207 105/131/209
s 22
f 4/92/152 15/132/210 107/133/211 106/93/153
s 28
f 15/132/212 13/134/213 108/135/214 107/133/215
s 29
f 13/134/216 32/136/217 109/137/218 108/135/219
s 30
f 110/138/220 109/137/221 32/136/222 26/139/223
s 27
f 31/140/224 111/141/225 110/138/226 26/139/227
f 31/140/224 77/142/228 112/143/229 111/141/225
f 77/142/228 24/144/230 113/145/231 112/143/229
f 105/131/209 113/145/231 24/144/230 21/130/208
s 7
f 37/44/53 114/49/232 121/48/233 122/41/50
s 10
f 115/33/234 114/49/235 37/44/86 12/28/85
s 4
f 12/28/28 19/27/27 116/34/236 115/33/237
s 1
f 117/15/238 116/34/239 19/27/42 6/14/14
f 6/14/14 41/13/13 118/16/240 117/15/238
s 16
f 51/76/117 119/77/241 118/16/242 41/13/118
s 13
f 62/75/105 120/78/243 119/77/244 51/76/106
s 19
f 135/88/144 136/89/245 120/78/246 62/75/145
s 27
f 122/41/247 121/48/248 25/47/200 23/125/203
f 82/126/204 123/42/249 122/41/247 23/125/203
f 124/39/250 123/42/249 82/126/204 22/128/206
f 125/40/251 124/39/250 22/128/206 21/130/208
f 126/46/252 125/40/251 21/130/208 24/144/230
f 24/144/230 77/142/228 127/60/253 126/46/252
f 128/54/254 127/60/253 77/142/228 31/140/224
f 26/139/227 137/51/255 128/54/254 31/140/224
s 26
f 46/102/169 129/82/256 145/81/257 47/100/170
f 69/103/171 130/83/258 129/82/256 46/102/169
f 131/84/259 130/83/258 69/103/171 45/105/173
f 132/85/260 131/84/259 45/105/173 43/107/175
f 133/86/261 132/85/260 43/107/175 44/109/177
f 90/111/179 134/87/262 133/86/261 44/109/177
f 48/113/181 135/88/263 134/87/262 90/111/179
f 49/90/184 136/89/264 135/88/263 48/113/181
s 30
f 32/136/222 138/52/265 137/51/266 26/139/223
s 29
f 139/29/267 138/52/268 32/136/217 13/134/216
s 28
f 15/132/212 140/30/269 139/29/270 13/134/213
s 22
f 4/92/152 141/7/271 140/30/272 15/132/210
f 142/8/273 141/7/271 4/92/152 39/91/151
s 23
f 56/95/155 143/71/274 142/8/275 39/91/156
s 24
f 57/97/159 144/72/276 143/71/277 56/95/160
s 25
f 47/100/166 145/81/278 144/72/279 57/97/163
