# This file uses centimeters as units for non-parametric coordinates.

mtllib hood_tray.mtl
g default
v 75.565178 181.921143 -128.548309
v 74.589539 182.519272 -128.095993
v 70.320152 181.685028 -124.579979
v 64.711731 180.768433 -121.124374
v 44.738373 180.432098 -112.750198
v 35.443451 180.626984 -110.504623
v 20.089226 180.795227 -108.293037
v 0.000000 180.867569 -107.511078
v 56.665836 180.296417 -116.907990
v -75.249695 182.627182 -128.668274
v -74.589539 182.519272 -128.095993
v -70.320145 181.685028 -124.579971
v -64.711731 180.768433 -121.124374
v -56.665833 180.296417 -116.907990
v -45.736343 180.411896 -113.012817
v -37.245781 180.594223 -110.868629
v -20.089233 180.795227 -108.293030
v 75.565178 183.171188 -122.767464
v 74.589539 183.769318 -122.315140
v 70.320152 182.935074 -115.360023
v 64.711731 182.018478 -111.904449
v 56.665836 181.546463 -107.688049
v 44.738369 181.682144 -103.530258
v 35.443451 181.877045 -101.284683
v 20.089226 182.045273 -99.073097
v 0.000000 182.117615 -98.291138
v -20.089226 182.045273 -99.073097
v -37.245789 181.844269 -101.648682
v -45.736343 181.661957 -103.792877
v -56.665833 181.546463 -107.688049
v -64.711739 182.018478 -111.904442
v -70.320152 182.935074 -115.360023
v -74.589539 183.769318 -121.821335
v -75.249702 183.877228 -122.393608
v 74.589539 187.964584 -122.381699
v 75.565178 187.366455 -122.834023
v 64.711731 186.213745 -115.410095
v 70.320152 187.130341 -118.865685
v 44.738369 185.877411 -107.035904
v 35.443451 186.072296 -104.790329
v 0.000000 186.312881 -101.796783
v 20.089226 186.240540 -102.578743
v 56.665836 185.741730 -111.193710
v -75.249695 188.072495 -122.953979
v -74.589539 187.964584 -122.381699
v -70.320145 187.130341 -118.865677
v -64.711739 186.213745 -115.410088
v -56.665840 185.741730 -111.193703
v -45.736343 185.857208 -107.298523
v -37.245781 186.039536 -105.154335
v -20.089226 186.240540 -102.578743
vt 0.385071 0.276850
vt 0.383178 0.274607
vt 0.391548 0.264848
vt 0.394349 0.266079
vt 0.415203 0.285657
vt 0.398537 0.280016
vt 0.408185 0.270416
vt 0.424065 0.274633
vt 0.499207 0.306018
vt 0.472324 0.300946
vt 0.477682 0.287171
vt 0.502780 0.291203
vt 0.601866 0.313419
vt 0.543531 0.310777
vt 0.545335 0.295397
vt 0.602096 0.297637
vt 0.438930 0.292782
vt 0.445864 0.280386
vt 0.841123 0.276393
vt 0.838511 0.277249
vt 0.825796 0.266116
vt 0.828289 0.265178
vt 0.821861 0.282495
vt 0.810325 0.271220
vt 0.802110 0.288760
vt 0.792148 0.275970
vt 0.775051 0.296228
vt 0.767341 0.282267
vt 0.740652 0.304169
vt 0.734842 0.288969
vt 0.713610 0.308721
vt 0.709953 0.292827
vt 0.661317 0.312849
vt 0.659785 0.296934
vt 0.385401 0.241991
vt 0.388478 0.242558
vt 0.401516 0.247980
vt 0.418177 0.251765
vt 0.441456 0.256938
vt 0.474659 0.262449
vt 0.500923 0.265620
vt 0.544655 0.269176
vt 0.602366 0.270913
vt 0.660917 0.269946
vt 0.711982 0.265374
vt 0.738309 0.261785
vt 0.772446 0.255845
vt 0.798937 0.249772
vt 0.818228 0.245320
vt 0.833839 0.239554
vt 0.836267 0.238561
vn -0.700232 -0.244909 -0.670593
vn -0.427792 -0.014338 -0.903764
vn 0.276755 0.824579 -0.493434
vn -0.596340 0.649513 -0.471712
vn -0.344018 -0.602082 -0.720520
vn -0.599653 -0.408484 -0.688155
vn -0.550554 0.586408 -0.594151
vn -0.398147 0.676636 -0.619389
vn -0.149172 -0.634045 -0.758772
vn -0.238351 -0.622740 -0.745241
vn -0.190660 0.701797 -0.686389
vn -0.111401 0.719076 -0.685944
vn 0.000000 -0.641221 -0.767357
vn -0.070374 -0.639630 -0.765455
vn -0.052532 0.717807 -0.694258
vn -0.000000 0.718675 -0.695346
vn -0.303378 -0.611000 -0.731192
vn -0.269097 0.704962 -0.656213
vn 0.642116 -0.101495 -0.759859
vn 0.689668 -0.283066 -0.666507
vn 0.634015 0.629924 -0.448576
vn 0.553850 0.653744 -0.515626
vn 0.575197 -0.435212 -0.692632
vn 0.545195 0.590114 -0.595422
vn 0.344018 -0.602081 -0.720520
vn 0.398146 0.676637 -0.619389
vn 0.307458 -0.610160 -0.730187
vn 0.275835 0.702375 -0.656190
vn 0.244658 -0.621734 -0.744036
vn 0.196741 0.701126 -0.685357
vn 0.151765 -0.633792 -0.758469
vn 0.112850 0.721334 -0.683332
vn 0.075194 -0.639404 -0.765185
vn 0.056058 0.716575 -0.695254
vn 0.448092 0.873792 -0.188948
vn -0.144206 0.973839 -0.175620
vn -0.313101 0.938769 -0.143807
vn -0.191120 0.972668 -0.131875
vn -0.084227 0.987413 -0.133874
vn -0.027123 0.990569 -0.134303
vn -0.009877 0.990885 -0.134346
vn -0.004811 0.990922 -0.134351
vn -0.000000 0.990933 -0.134354
vn 0.005038 0.990921 -0.134351
vn 0.010145 0.990883 -0.134345
vn 0.028741 0.990524 -0.134297
vn 0.087173 0.987161 -0.133841
vn 0.191120 0.972667 -0.131876
vn 0.306514 0.941282 -0.141554
vn 0.345142 0.925274 -0.157307
vn 0.313111 0.931413 -0.185559
s 1
g hood_tray group7
usemtl initialShadingGroup
f 35/1/1 36/2/2 18/3/3 19/4/4
f 37/5/5 38/6/6 20/7/7 21/8/8
f 40/9/9 39/10/10 23/11/11 24/12/12
f 41/13/13 42/14/14 25/15/15 26/16/16
f 38/6/6 35/1/1 19/4/4 20/7/7
f 39/10/10 43/17/17 22/18/18 23/11/11
f 43/17/17 37/5/5 21/8/8 22/18/18
f 42/14/14 40/9/9 24/12/12 25/15/15
f 44/19/19 45/20/20 33/21/21 34/22/22
f 45/20/20 46/23/23 32/24/24 33/21/21
f 46/23/23 47/25/25 31/26/26 32/24/24
f 47/25/25 48/27/27 30/28/28 31/26/26
f 48/27/27 49/29/29 29/30/30 30/28/28
f 49/29/29 50/31/31 28/32/32 29/30/30
f 50/31/31 51/33/33 27/34/34 28/32/32
f 51/33/33 41/13/13 26/16/16 27/34/34
f 19/4/4 18/3/3 1/35/35 2/36/36
f 20/7/7 19/4/4 2/36/36 3/37/37
f 21/8/8 20/7/7 3/37/37 4/38/38
f 22/18/18 21/8/8 4/38/38 9/39/39
f 23/11/11 22/18/18 9/39/39 5/40/40
f 24/12/12 23/11/11 5/40/40 6/41/41
f 25/15/15 24/12/12 6/41/41 7/42/42
f 26/16/16 25/15/15 7/42/42 8/43/43
f 27/34/34 26/16/16 8/43/43 17/44/44
f 28/32/32 27/34/34 17/44/44 16/45/45
f 29/30/30 28/32/32 16/45/45 15/46/46
f 30/28/28 29/30/30 15/46/46 14/47/47
f 31/26/26 30/28/28 14/47/47 13/48/48
f 32/24/24 31/26/26 13/48/48 12/49/49
f 33/21/21 32/24/24 12/49/49 11/50/50
f 34/22/22 33/21/21 11/50/50 10/51/51
