# This file uses centimeters as units for non-parametric coordinates.

mtllib logo_lens_RR.mtl
g default
v 1.044222 184.498352 -477.615082
v -0.000458 184.498062 -477.631195
v -0.000458 185.387100 -477.349426
v 1.052301 185.360779 -477.342163
v 4.411733 185.180527 -477.124237
v 4.385692 184.415466 -477.359985
v 5.334083 185.095947 -476.992615
v 5.313749 184.401474 -477.205261
v 5.840733 185.049408 -476.867432
v 5.814355 184.316757 -477.074615
v -0.000458 187.469391 -476.479828
v 1.104025 187.443939 -476.474152
v -0.007652 188.426971 -475.940857
v 1.071775 188.395950 -475.940338
v -0.000458 188.864075 -475.616943
v 1.048028 188.814865 -475.620667
v 4.076943 186.964828 -476.452118
v 3.680691 187.664169 -476.146973
v 3.824787 188.031448 -475.888763
v 4.925009 186.679520 -476.437103
v 4.494229 187.271362 -476.223328
v 4.682825 187.455505 -476.053894
v 5.328943 186.684464 -476.327484
v -0.000458 186.341049 -476.987152
v 1.092808 186.315201 -476.980560
v 4.394660 186.025299 -476.813385
v 5.160219 186.000534 -476.693268
v 5.683582 185.914688 -476.588318
v 1.045493 183.566391 -477.852539
v -0.000458 183.565857 -477.867310
v 1.065389 182.470169 -478.046509
v -0.000458 182.469955 -478.064880
v 1.075949 181.139664 -478.070953
v -0.003390 181.058685 -478.080048
v 1.053938 181.671844 -478.111053
v -0.000458 181.610565 -478.130981
v 4.153663 183.727844 -477.568359
v 3.835084 183.031754 -477.752625
v 3.615887 182.348541 -477.867981
v 3.665549 181.858292 -477.863220
v 5.018078 183.751083 -477.424744
v 5.499726 183.616974 -477.321869
v 4.614533 183.154221 -477.613098
v 5.045343 182.899323 -477.537323
v 4.150374 182.636536 -477.756897
v 4.454810 182.354446 -477.712250
v -1.045138 184.498352 -477.615082
v -1.053216 185.360779 -477.342133
v -2.418007 185.275452 -477.299957
v -2.390522 184.462601 -477.556366
v -5.309706 185.153854 -476.974091
v -5.314664 184.401474 -477.205231
v -5.813568 185.051788 -476.873230
v -5.747829 184.334625 -477.094635
v -1.093723 186.315201 -476.980560
v -1.104941 187.443939 -476.474152
v -1.071096 188.395508 -475.940643
v -1.076412 188.832748 -475.606140
v -2.415000 186.234558 -476.943359
v -2.390048 187.304504 -476.471893
v -2.416112 188.130569 -476.020050
v -2.430852 188.556915 -475.721527
v -5.161135 186.000534 -476.693268
v -4.495682 187.272980 -476.226318
v -4.796196 186.728836 -476.440308
v -4.693981 187.456757 -476.047211
v -5.684498 185.914688 -476.588318
v -5.329859 186.684464 -476.327454
v -1.046408 183.566391 -477.852509
v -1.066305 182.470169 -478.046478
v -1.054854 181.671844 -478.111084
v -1.076865 181.139664 -478.070923
v -2.361036 183.656174 -477.766876
v -2.325446 182.724014 -477.949219
v -2.337590 181.955261 -478.029175
v -2.333993 181.401474 -478.010864
v -5.018994 183.751083 -477.424774
v -5.489644 183.631500 -477.316833
v -4.615449 183.154221 -477.613098
v -5.046259 182.899323 -477.537292
v -4.108137 182.658356 -477.766113
v -4.455728 182.354446 -477.712280
v 5.980334 185.015289 -476.754089
v 5.901492 184.275894 -476.950592
v -0.000459 188.953918 -475.462952
v 1.111254 188.881012 -475.457886
v 3.916232 188.094238 -475.743469
v 4.761226 187.474640 -475.907104
v 5.456343 186.703476 -476.196564
v 5.819468 185.908691 -476.465881
v 1.101673 180.978470 -477.996704
v -0.003084 180.906342 -478.001526
v 3.773139 181.720490 -477.773010
v 5.631199 183.536301 -477.223145
v 5.165951 182.795258 -477.445618
v 4.573921 182.240326 -477.607910
v -5.955849 185.010529 -476.756470
v -5.895740 184.258163 -476.960724
v -1.121420 188.884750 -475.445129
v -2.488921 188.636765 -475.570923
v -4.769117 187.471100 -475.894470
v -5.804109 185.898315 -476.450928
v -5.439617 186.665909 -476.204651
v -1.095336 180.969315 -477.983032
v -2.386617 181.225006 -477.941193
v -5.632117 183.536301 -477.223145
v -5.166868 182.795258 -477.445587
v -4.562196 182.232742 -477.626495
v 6.004049 184.961349 -476.591187
v -0.000458 188.925003 -475.314087
v 1.121842 188.868103 -475.320831
v 3.942032 188.055801 -475.588989
v 5.480797 186.658371 -476.034332
v 5.842889 185.860733 -476.302216
v 1.103680 180.876404 -477.821442
v -0.007511 180.810226 -477.832092
v 3.797552 181.616699 -477.586731
v 5.655051 183.481430 -477.062988
v 5.189878 182.736450 -477.289337
v 4.599788 182.144073 -477.432526
v -6.004982 184.961349 -476.591187
v -5.919082 184.215652 -476.835907
v -1.128908 188.864792 -475.304016
v -2.506460 188.604126 -475.419739
v -5.836182 185.857224 -476.296234
v -5.472738 186.629517 -476.054016
v -1.098590 180.873627 -477.817535
v -2.404946 181.104004 -477.748383
v -5.655685 183.478546 -477.050781
v -5.184739 182.739670 -477.268219
v -4.598794 182.152618 -477.445770
v 2.023243 181.026733 -477.797821
v 2.000240 181.132233 -477.963379
v 1.974974 181.292297 -478.026794
v 1.939039 181.867462 -478.058319
v 1.934141 182.645721 -477.982697
v 1.952496 183.629150 -477.796906
v 1.972500 184.475113 -477.579712
v 1.993976 185.303833 -477.318573
v 2.004470 186.261642 -476.959778
v 1.990683 187.349243 -476.475403
v 2.011377 188.206360 -476.005402
v 2.010366 188.647263 -475.691650
v 2.058111 188.726471 -475.534119
v 2.077981 188.718109 -475.376801
v 3.060369 188.446289 -475.470459
v 3.029218 188.457443 -475.644531
v 2.950538 188.361343 -475.799316
v 2.887122 187.950958 -476.080505
v 2.980242 187.176300 -476.480408
v 3.103659 186.160645 -476.917145
v 3.110395 185.247620 -477.252838
v 3.089601 184.447418 -477.505524
v 3.047181 183.686234 -477.707367
v 2.896141 182.842255 -477.883789
v 2.811038 182.106232 -477.972778
v 2.863420 181.550278 -477.960236
v 2.915560 181.390839 -477.900940
v 2.956436 181.278198 -477.726654
v -3.367839 188.328812 -475.511749
v -3.334705 188.344116 -475.677948
v -3.249237 188.257629 -475.830444
v -3.225219 187.843185 -476.105865
v -3.375640 187.108032 -476.472290
v -3.530111 186.172943 -476.867493
v -3.563849 185.257050 -477.201843
v -3.536504 184.444183 -477.460999
v -3.449308 183.717773 -477.659912
v -3.145526 182.897614 -477.851135
v -3.087046 182.185928 -477.939392
v -3.115560 181.668121 -477.934021
v -3.199238 181.506332 -477.878693
v -3.266133 181.382080 -477.672760
v -4.163990 187.920334 -475.618500
v -4.131213 187.947144 -475.773804
v -4.041880 187.902206 -475.925140
v -3.953579 187.589813 -476.145477
v -4.245778 186.906097 -476.453735
v -4.519609 186.091431 -476.767853
v -4.604228 185.204010 -477.085571
v -4.578301 184.419098 -477.330994
v -4.409966 183.754883 -477.529266
v -3.938988 183.051315 -477.733734
v -3.734507 182.422714 -477.841766
v -3.856237 181.977341 -477.828644
v -3.954346 181.834793 -477.754517
v -4.021946 181.747253 -477.562012
v 4.779837 187.447830 -475.772156
v 5.921932 184.233643 -476.806396
v -4.788159 187.436203 -475.766754
vt 0.827853 0.803646
vt 0.827315 0.772972
vt 0.854812 0.772749
vt 0.854447 0.803729
vt 0.852776 0.863260
vt 0.828350 0.862688
vt 0.827919 0.830644
vt 0.853366 0.831180
vt 0.851394 0.899697
vt 0.827971 0.898255
vt 0.848655 0.925190
vt 0.827697 0.924208
vt 0.846952 0.939596
vt 0.825763 0.938774
vt 0.884949 0.772431
vt 0.884512 0.804586
vt 0.920836 0.804847
vt 0.921489 0.772164
vt 0.954247 0.771848
vt 0.953269 0.804176
vt 0.970620 0.772038
vt 0.969130 0.803712
vt 0.876888 0.899744
vt 0.881151 0.862776
vt 0.928866 0.880742
vt 0.906079 0.891259
vt 0.912824 0.859481
vt 0.938325 0.857767
vt 0.941703 0.885815
vt 0.952952 0.860422
vt 0.876166 0.921804
vt 0.916410 0.904130
vt 0.897516 0.915842
vt 0.923197 0.910302
vt 0.873879 0.937341
vt 0.898373 0.928006
vt 0.799939 0.803692
vt 0.799333 0.773125
vt 0.767575 0.804685
vt 0.766704 0.773132
vt 0.743901 0.805126
vt 0.740915 0.773324
vt 0.727890 0.806666
vt 0.723904 0.773485
vt 0.802640 0.829962
vt 0.805645 0.861289
vt 0.773874 0.829806
vt 0.780972 0.856943
vt 0.751289 0.830912
vt 0.759965 0.855357
vt 0.734568 0.833263
vt 0.744494 0.858097
vt 0.807466 0.891166
vt 0.787330 0.882480
vt 0.768135 0.877067
vt 0.754976 0.879286
vt 0.808206 0.915316
vt 0.804537 0.929415
vt 0.790732 0.903031
vt 0.784141 0.915491
vt 0.776610 0.891129
vt 0.769350 0.899641
vt 0.827148 0.742123
vt 0.853852 0.741606
vt 0.826363 0.702371
vt 0.851501 0.701219
vt 0.851008 0.637517
vt 0.827372 0.638436
vt 0.827957 0.617105
vt 0.850406 0.617058
vt 0.826965 0.604278
vt 0.848335 0.602281
vt 0.884030 0.740104
vt 0.920636 0.739340
vt 0.953239 0.739920
vt 0.969852 0.739463
vt 0.881765 0.701012
vt 0.916276 0.701088
vt 0.944355 0.699577
vt 0.960018 0.698636
vt 0.878284 0.639341
vt 0.876016 0.620748
vt 0.926458 0.653944
vt 0.903882 0.646356
vt 0.898570 0.630426
vt 0.916082 0.638330
vt 0.937671 0.650483
vt 0.922949 0.631732
vt 0.874322 0.605404
vt 0.897918 0.614666
vt 0.799116 0.742387
vt 0.766692 0.741330
vt 0.742820 0.741120
vt 0.726496 0.739887
vt 0.802058 0.703657
vt 0.775141 0.704282
vt 0.753084 0.702854
vt 0.736855 0.701509
vt 0.808477 0.625526
vt 0.807565 0.643195
vt 0.806078 0.611607
vt 0.790536 0.636739
vt 0.786408 0.656465
vt 0.784246 0.623660
vt 0.775328 0.650964
vt 0.767862 0.661887
vt 0.767141 0.639914
vt 0.754985 0.657605
vt 0.846416 0.944793
vt 0.825181 0.943201
vt 0.976022 0.772037
vt 0.974364 0.805883
vt 0.945748 0.889367
vt 0.958101 0.863395
vt 0.926343 0.914114
vt 0.900598 0.932919
vt 0.874841 0.942676
vt 0.722550 0.807903
vt 0.718549 0.773604
vt 0.729614 0.834651
vt 0.739970 0.860255
vt 0.751209 0.882985
vt 0.802401 0.934337
vt 0.781266 0.919667
vt 0.766152 0.903740
vt 0.825627 0.598296
vt 0.848200 0.596883
vt 0.974901 0.737769
vt 0.965018 0.696427
vt 0.941615 0.646657
vt 0.954707 0.670804
vt 0.949724 0.674067
vt 0.926098 0.627772
vt 0.875437 0.600276
vt 0.899192 0.610048
vt 0.720548 0.738924
vt 0.731275 0.699463
vt 0.803874 0.606528
vt 0.781596 0.619119
vt 0.763566 0.635716
vt 0.750660 0.654034
vt 0.980664 0.772046
vt 0.978528 0.806629
vt 0.962890 0.865841
vt 0.949466 0.892444
vt 0.903039 0.937410
vt 0.875929 0.947809
vt 0.846297 0.949895
vt 0.716324 0.808861
vt 0.712358 0.773594
vt 0.734768 0.863266
vt 0.724083 0.836753
vt 0.746295 0.886085
vt 0.800224 0.939014
vt 0.778329 0.923361
vt 0.761865 0.907055
vt 0.824852 0.594452
vt 0.848395 0.591648
vt 0.979214 0.737020
vt 0.969500 0.694773
vt 0.945335 0.643357
vt 0.959231 0.668080
vt 0.876643 0.595650
vt 0.901310 0.605897
vt 0.714526 0.738045
vt 0.724632 0.697425
vt 0.801868 0.601635
vt 0.778698 0.614523
vt 0.759261 0.631201
vt 0.745687 0.649468
vt 0.883377 0.831156
vt 0.918031 0.830878
vt 0.946858 0.832087
vt 0.963032 0.832595
vt 0.968201 0.834501
vt 0.972806 0.835998
vt 0.934755 0.675511
vt 0.910175 0.671922
vt 0.880422 0.668181
vt 0.851649 0.667735
vt 0.826529 0.668679
vt 0.805136 0.671275
vt 0.780909 0.679872
vt 0.760272 0.680896
vt 0.745262 0.679281
vt 0.740484 0.676376
vt 0.734255 0.672399
vt 0.929177 0.917162
vt 0.824367 0.947550
vt 0.928539 0.624565
vn 0.027351 0.273728 -0.961418
vn -0.000008 0.273490 -0.961875
vn -0.000002 0.330290 -0.943880
vn 0.027663 0.329045 -0.943909
vn 0.092033 0.322410 -0.942116
vn 0.091564 0.274066 -0.957342
vn 0.056940 0.273949 -0.960057
vn 0.057968 0.325828 -0.943650
vn 0.131134 0.318265 -0.938888
vn 0.133151 0.270695 -0.953412
vn 0.199434 0.311578 -0.929056
vn 0.206561 0.254012 -0.944886
vn 0.384411 0.298465 -0.873583
vn 0.415801 0.185381 -0.890361
vn 0.000006 0.385495 -0.922710
vn 0.027884 0.383786 -0.923001
vn 0.027790 0.446793 -0.894205
vn 0.000041 0.448074 -0.893996
vn -0.000250 0.528161 -0.849144
vn 0.030699 0.527959 -0.848715
vn 0.000283 0.692268 -0.721641
vn 0.047346 0.692041 -0.720304
vn 0.128922 0.367711 -0.920960
vn 0.090880 0.373573 -0.923138
vn 0.127299 0.488132 -0.863436
vn 0.122549 0.416658 -0.900765
vn 0.086601 0.425681 -0.900720
vn 0.090170 0.499637 -0.861529
vn 0.217753 0.632496 -0.743326
vn 0.135268 0.640928 -0.755589
vn 0.189777 0.369306 -0.909724
vn 0.181894 0.482209 -0.856965
vn 0.186180 0.425693 -0.885507
vn 0.330413 0.609407 -0.720729
vn 0.363850 0.387330 -0.847106
vn 0.372292 0.505339 -0.778480
vn 0.027160 0.209126 -0.977511
vn -0.000007 0.208404 -0.978043
vn 0.028453 0.134656 -0.990484
vn -0.000007 0.134285 -0.990943
vn 0.034203 0.016182 -0.999284
vn 0.000027 0.011402 -0.999935
vn 0.046990 -0.161239 -0.985796
vn -0.000948 -0.182980 -0.983116
vn 0.055159 0.215207 -0.975010
vn 0.088227 0.222248 -0.970990
vn 0.057029 0.146772 -0.987525
vn 0.084742 0.158360 -0.983738
vn 0.069167 0.035028 -0.996990
vn 0.096049 0.055993 -0.993800
vn 0.093594 -0.125835 -0.987626
vn 0.133605 -0.101500 -0.985823
vn 0.128201 0.225920 -0.965673
vn 0.120178 0.169488 -0.978177
vn 0.130955 0.070998 -0.988843
vn 0.200709 -0.105047 -0.974003
vn 0.198278 0.202277 -0.959046
vn 0.372223 0.106321 -0.922033
vn 0.186635 0.149133 -0.971044
vn 0.330789 0.018536 -0.943523
vn 0.175755 0.082780 -0.980947
vn 0.283876 -0.072061 -0.956150
vn -0.032810 0.274168 -0.961122
vn -0.033554 0.328565 -0.943885
vn -0.063819 0.275123 -0.959289
vn -0.065317 0.325222 -0.943379
vn -0.140503 0.319260 -0.937194
vn -0.142275 0.273487 -0.951295
vn -0.213194 0.255749 -0.942943
vn -0.203022 0.315212 -0.927051
vn -0.402792 0.195832 -0.894097
vn -0.396726 0.297296 -0.868460
vn -0.033364 0.382682 -0.923277
vn -0.032972 0.445960 -0.894445
vn -0.036138 0.527915 -0.848528
vn -0.056265 0.694379 -0.717407
vn -0.063817 0.377249 -0.923911
vn -0.061710 0.437348 -0.897173
vn -0.066157 0.514426 -0.854979
vn -0.099869 0.671784 -0.733984
vn -0.136055 0.367284 -0.920104
vn -0.198165 0.370669 -0.907378
vn -0.142189 0.489649 -0.860248
vn -0.128908 0.416957 -0.899739
vn -0.193883 0.430490 -0.881526
vn -0.194277 0.483304 -0.853624
vn -0.246196 0.645230 -0.723233
vn -0.370523 0.618039 -0.693354
vn -0.384282 0.391474 -0.836107
vn -0.384811 0.508912 -0.770019
vn -0.031728 0.210348 -0.977112
vn -0.032870 0.136030 -0.990159
vn -0.038682 0.020036 -0.999051
vn -0.055524 -0.167019 -0.984389
vn -0.060898 0.218053 -0.974035
vn -0.061195 0.150388 -0.986731
vn -0.073108 0.042743 -0.996408
vn -0.098273 -0.129113 -0.986748
vn -0.209650 0.194891 -0.958157
vn -0.138224 0.224132 -0.964707
vn -0.374079 0.107872 -0.921102
vn -0.196181 0.140478 -0.970453
vn -0.124532 0.171594 -0.977265
vn -0.327999 0.026615 -0.944303
vn -0.174588 0.088114 -0.980691
vn -0.137129 0.073767 -0.987803
vn -0.274516 -0.041016 -0.960707
vn -0.204046 -0.079736 -0.975709
vn 0.890065 0.178996 -0.419219
vn 0.890225 -0.065521 -0.450785
vn 0.001540 0.985470 -0.169842
vn 0.099760 0.975501 -0.196074
vn 0.446399 0.862915 -0.236868
vn 0.284666 0.917110 -0.279059
vn 0.618214 0.753551 -0.223546
vn 0.746919 0.596681 -0.293399
vn 0.840876 0.385130 -0.380266
vn 0.091737 -0.681754 -0.725807
vn -0.000370 -0.702267 -0.711914
vn 0.181799 -0.634953 -0.750855
vn 0.278887 -0.600219 -0.749640
vn 0.423442 -0.574633 -0.700352
vn 0.806146 -0.227813 -0.546104
vn 0.687772 -0.375239 -0.621422
vn 0.552540 -0.507792 -0.660944
vn -0.841860 -0.021974 -0.539248
vn -0.858456 0.193425 -0.475015
vn -0.120962 0.981240 -0.150119
vn -0.217715 0.955956 -0.196848
vn -0.475048 0.849526 -0.229424
vn -0.341340 0.902002 -0.264348
vn -0.162608 0.638271 -0.752442
vn -0.650608 0.733835 -0.195435
vn -0.844115 0.383371 -0.374829
vn -0.767414 0.584144 -0.264296
vn -0.111859 -0.680308 -0.724340
vn -0.202965 -0.636254 -0.744302
vn -0.786997 -0.209176 -0.580415
vn -0.698406 -0.381233 -0.605715
vn -0.564828 -0.491557 -0.662828
vn -0.422555 -0.549161 -0.721020
vn 0.000520 0.988080 0.153938
vn 0.108402 0.989078 0.099870
vn 0.335873 0.940924 0.043022
vn 0.507788 0.857811 0.079445
vn 0.838622 0.544403 0.018405
vn 0.950117 0.308261 -0.047471
vn 0.989536 0.086158 -0.115735
vn 0.101772 -0.854670 -0.509100
vn 0.000278 -0.867124 -0.498092
vn 0.324934 -0.775895 -0.540745
vn 0.210703 -0.814310 -0.540836
vn 0.468986 -0.731361 -0.495139
vn 0.897688 -0.358170 -0.256653
vn 0.776457 -0.530296 -0.340442
vn 0.610040 -0.663454 -0.433220
vn -0.959156 -0.143469 -0.243795
vn -0.969700 0.126146 -0.209209
vn -0.133728 0.977854 0.160993
vn -0.250707 0.959440 0.128919
vn -0.532267 0.845575 0.041168
vn -0.394485 0.917257 0.054967
vn -0.933526 0.333311 -0.132033
vn -0.834737 0.549964 -0.027467
vn -0.126156 -0.851258 -0.509358
vn -0.234420 -0.814556 -0.530609
vn -0.893389 -0.376169 -0.245668
vn -0.785298 -0.543197 -0.297059
vn -0.640379 -0.654829 -0.401391
vn -0.492143 -0.712550 -0.500068
vn 0.057571 0.379356 -0.923458
vn 0.056592 0.438917 -0.896744
vn 0.061070 0.516331 -0.854209
vn 0.091455 0.673384 -0.733614
vn 0.189434 0.947863 -0.256263
vn 0.221909 0.974526 0.032480
vn -0.104491 0.494486 -0.862882
vn -0.097461 0.424701 -0.900073
vn -0.100375 0.371910 -0.922826
vn -0.102711 0.323007 -0.940807
vn -0.102568 0.276041 -0.955657
vn -0.099998 0.224414 -0.969350
vn -0.095706 0.162765 -0.982012
vn -0.111691 0.062694 -0.991763
vn -0.151075 -0.086440 -0.984736
vn -0.311836 -0.576488 -0.755262
vn -0.367073 -0.757743 -0.539521
vn 0.682992 0.727236 0.068198
vn 0.967769 -0.163148 -0.191850
vn -0.709607 0.703675 0.036039
s 1
g logo_lens_RR group7
usemtl initialShadingGroup
f 1/1/1 2/2/2 3/3/3 4/4/4
f 152/5/5 153/6/6 138/7/7 139/8/8
f 5/9/9 6/10/10 153/6/6 152/5/5
f 6/10/10 5/9/9 7/11/11 8/12/12
f 8/12/12 7/11/11 9/13/13 10/14/14
f 4/4/4 3/3/3 24/15/15 25/16/16
f 12/17/17 11/18/18 13/19/19 14/20/20
f 14/20/20 13/19/19 15/21/21 16/22/22
f 26/23/23 5/9/9 152/5/5 151/24/24
f 18/25/25 17/26/26 150/27/27 149/28/28
f 19/29/29 18/25/25 149/28/28 148/30/30
f 26/23/23 27/31/31 7/11/11 5/9/9
f 18/25/25 21/32/32 20/33/33 17/26/26
f 19/29/29 22/34/34 21/32/32 18/25/25
f 27/31/31 28/35/35 9/13/13 7/11/11
f 22/34/34 23/36/36 20/33/33 21/32/32
f 25/16/16 24/15/15 11/18/18 12/17/17
f 17/26/26 26/23/23 151/24/24 150/27/27
f 17/26/26 20/33/33 27/31/31 26/23/23
f 23/36/36 28/35/35 27/31/31 20/33/33
f 2/2/2 1/1/1 29/37/37 30/38/38
f 30/38/38 29/37/37 31/39/39 32/40/40
f 32/40/40 31/39/39 35/41/41 36/42/42
f 36/42/42 35/41/41 33/43/43 34/44/44
f 137/45/45 138/7/7 153/6/6 154/46/46
f 136/47/47 137/45/45 154/46/46 155/48/48
f 135/49/49 136/47/47 155/48/48 156/50/50
f 134/51/51 135/49/49 156/50/50 157/52/52
f 6/10/10 37/53/53 154/46/46 153/6/6
f 37/53/53 38/54/54 155/48/48 154/46/46
f 38/54/54 39/55/55 156/50/50 155/48/48
f 39/55/55 40/56/56 157/52/52 156/50/50
f 41/57/57 37/53/53 6/10/10 8/12/12
f 10/14/14 42/58/58 41/57/57 8/12/12
f 43/59/59 38/54/54 37/53/53 41/57/57
f 42/58/58 44/60/60 43/59/59 41/57/57
f 45/61/61 39/55/55 38/54/54 43/59/59
f 44/60/60 46/62/62 45/61/61 43/59/59
f 39/55/55 45/61/61 46/62/62 40/56/56
f 47/63/63 48/64/64 3/3/3 2/2/2
f 47/63/63 50/65/65 49/66/66 48/64/64
f 180/67/67 181/68/68 52/69/69 51/70/70
f 52/69/69 54/71/71 53/72/72 51/70/70
f 48/64/64 55/73/73 24/15/15 3/3/3
f 56/74/74 57/75/75 13/19/19 11/18/18
f 57/75/75 58/76/76 15/21/21 13/19/19
f 49/66/66 59/77/77 55/73/73 48/64/64
f 60/78/78 61/79/79 57/75/75 56/74/74
f 61/79/79 62/80/80 58/76/76 57/75/75
f 179/81/81 180/67/67 51/70/70 63/82/82
f 177/83/83 178/84/84 65/85/85 64/86/86
f 176/87/87 177/83/83 64/86/86 66/88/88
f 63/82/82 51/70/70 53/72/72 67/89/89
f 66/88/88 64/86/86 65/85/85 68/90/90
f 55/73/73 56/74/74 11/18/18 24/15/15
f 59/77/77 60/78/78 56/74/74 55/73/73
f 178/84/84 179/81/81 63/82/82 65/85/85
f 68/90/90 65/85/85 63/82/82 67/89/89
f 2/2/2 30/38/38 69/91/91 47/63/63
f 30/38/38 32/40/40 70/92/92 69/91/91
f 32/40/40 36/42/42 71/93/93 70/92/92
f 36/42/42 34/44/44 72/94/94 71/93/93
f 47/63/63 69/91/91 73/95/95 50/65/65
f 69/91/91 70/92/92 74/96/96 73/95/95
f 75/97/97 74/96/96 70/92/92 71/93/93
f 76/98/98 75/97/97 71/93/93 72/94/94
f 77/99/99 52/69/69 181/68/68 182/100/100
f 54/71/71 52/69/69 77/99/99 78/101/101
f 79/102/102 77/99/99 182/100/100 183/103/103
f 78/101/101 77/99/99 79/102/102 80/104/104
f 81/105/105 79/102/102 183/103/103 184/106/106
f 80/104/104 79/102/102 81/105/105 82/107/107
f 184/106/106 185/108/108 82/107/107 81/105/105
f 10/14/14 9/13/13 83/109/109 84/110/110
f 16/22/22 15/21/21 85/111/111 86/112/112
f 87/113/113 19/29/29 148/30/30 147/114/114
f 22/34/34 19/29/29 87/113/113 88/115/115
f 28/35/35 23/36/36 89/116/116 90/117/117
f 23/36/36 22/34/34 88/115/115 89/116/116
f 9/13/13 28/35/35 90/117/117 83/109/109
f 34/44/44 33/43/43 91/118/118 92/119/119
f 133/120/120 134/51/51 157/52/52 158/121/121
f 40/56/56 93/122/122 158/121/121 157/52/52
f 42/58/58 10/14/14 84/110/110 94/123/123
f 44/60/60 42/58/58 94/123/123 95/124/124
f 46/62/62 44/60/60 95/124/124 96/125/125
f 40/56/56 46/62/62 96/125/125 93/122/122
f 53/72/72 54/71/71 98/126/126 97/127/127
f 15/21/21 58/76/76 99/128/128 85/111/111
f 58/76/76 62/80/80 100/129/129 99/128/128
f 175/130/130 161/131/131 162/132/132 176/87/87
f 175/130/130 176/87/87 66/88/88 101/133/133
f 67/89/89 53/72/72 97/127/127 102/134/134
f 66/88/88 68/90/90 103/135/135 101/133/133
f 68/90/90 67/89/89 102/134/134 103/135/135
f 72/94/94 34/44/44 92/119/119 104/136/136
f 76/98/98 72/94/94 104/136/136 105/137/137
f 54/71/71 78/101/101 106/138/138 98/126/126
f 78/101/101 80/104/104 107/139/139 106/138/138
f 80/104/104 82/107/107 108/140/140 107/139/139
f 82/107/107 185/108/108 186/141/141 108/140/140
f 86/112/112 85/111/111 110/142/142 111/143/143
f 146/144/144 112/145/145 87/113/113 147/114/114
f 90/117/117 89/116/116 113/146/146 114/147/147
f 83/109/109 90/117/117 114/147/147 109/148/148
f 92/119/119 91/118/118 115/149/149 116/150/150
f 158/121/121 159/151/151 132/152/152 133/120/120
f 93/122/122 117/153/153 159/151/151 158/121/121
f 95/124/124 94/123/123 118/154/154 119/155/155
f 96/125/125 95/124/124 119/155/155 120/156/156
f 93/122/122 96/125/125 120/156/156 117/153/153
f 97/127/127 98/126/126 122/157/157 121/158/158
f 85/111/111 99/128/128 123/159/159 110/142/142
f 99/128/128 100/129/129 124/160/160 123/159/159
f 174/161/161 160/162/162 161/131/131 175/130/130
f 102/134/134 97/127/127 121/158/158 125/163/163
f 103/135/135 102/134/134 125/163/163 126/164/164
f 104/136/136 92/119/119 116/150/150 127/165/165
f 105/137/137 104/136/136 127/165/165 128/166/166
f 98/126/126 106/138/138 129/167/167 122/157/157
f 106/138/138 107/139/139 130/168/168 129/167/167
f 107/139/139 108/140/140 131/169/169 130/168/168
f 108/140/140 186/141/141 187/170/170 131/169/169
f 151/24/24 152/5/5 139/8/8 140/171/171
f 150/27/27 151/24/24 140/171/171 141/172/172
f 149/28/28 150/27/27 141/172/172 142/173/173
f 148/30/30 149/28/28 142/173/173 143/174/174
f 147/114/114 148/30/30 143/174/174 144/175/175
f 145/176/176 146/144/144 147/114/114 144/175/175
f 91/118/118 133/120/120 132/152/152 115/149/149
f 33/43/43 134/51/51 133/120/120 91/118/118
f 135/49/49 134/51/51 33/43/43 35/41/41
f 136/47/47 135/49/49 35/41/41 31/39/39
f 29/37/37 137/45/45 136/47/47 31/39/39
f 1/1/1 138/7/7 137/45/45 29/37/37
f 1/1/1 4/4/4 139/8/8 138/7/7
f 140/171/171 139/8/8 4/4/4 25/16/16
f 141/172/172 140/171/171 25/16/16 12/17/17
f 142/173/173 141/172/172 12/17/17 14/20/20
f 143/174/174 142/173/173 14/20/20 16/22/22
f 144/175/175 143/174/174 16/22/22 86/112/112
f 145/176/176 144/175/175 86/112/112 111/143/143
f 100/129/129 161/131/131 160/162/162 124/160/160
f 62/80/80 162/132/132 161/131/131 100/129/129
f 62/80/80 61/79/79 163/177/177 162/132/132
f 61/79/79 60/78/78 164/178/178 163/177/177
f 60/78/78 59/77/77 165/179/179 164/178/178
f 59/77/77 49/66/66 166/180/180 165/179/179
f 50/65/65 167/181/181 166/180/180 49/66/66
f 50/65/65 73/95/95 168/182/182 167/181/181
f 169/183/183 168/182/182 73/95/95 74/96/96
f 170/184/184 169/183/183 74/96/96 75/97/97
f 171/185/185 170/184/184 75/97/97 76/98/98
f 172/186/186 171/185/185 76/98/98 105/137/137
f 173/187/187 172/186/186 105/137/137 128/166/166
f 177/83/83 176/87/87 162/132/132 163/177/177
f 178/84/84 177/83/83 163/177/177 164/178/178
f 179/81/81 178/84/84 164/178/178 165/179/179
f 180/67/67 179/81/81 165/179/179 166/180/180
f 181/68/68 180/67/67 166/180/180 167/181/181
f 168/182/182 182/100/100 181/68/68 167/181/181
f 169/183/183 183/103/103 182/100/100 168/182/182
f 170/184/184 184/106/106 183/103/103 169/183/183
f 171/185/185 185/108/108 184/106/106 170/184/184
f 172/186/186 186/141/141 185/108/108 171/185/185
f 173/187/187 187/170/170 186/141/141 172/186/186
f 88/115/115 87/113/113 112/145/145 188/188/188
f 188/188/188 113/146/146 89/116/116 88/115/115
f 84/110/110 83/109/109 109/148/148 189/189/189
f 189/189/189 118/154/154 94/123/123 84/110/110
f 101/133/133 103/135/135 126/164/164 190/190/190
f 190/190/190 174/161/161 175/130/130 101/133/133
