# This file uses centimeters as units for non-parametric coordinates.

mtllib trim_windshield.mtl
g default
v -0.000000 228.763062 -198.804749
v -0.000000 227.471405 -194.274979
v 8.069164 227.449738 -194.492828
v 7.822301 228.723587 -198.941254
v 17.501987 227.340912 -195.206268
v 17.331591 228.543137 -199.391251
v 27.177856 227.111633 -196.500519
v 27.030659 228.218048 -200.329849
v 36.630833 226.790359 -198.556992
v 36.442963 227.691116 -201.606003
v 45.578804 226.322861 -201.188416
v 45.410538 227.011520 -203.469055
v 53.383213 225.796448 -204.232025
v 53.154163 226.216354 -205.480515
v -0.000000 227.223328 -193.981842
v 8.071106 227.212097 -194.179642
v 17.549994 227.086105 -194.869827
v 27.201546 226.845367 -196.178696
v 36.680115 226.561630 -198.229431
v 45.686920 226.060440 -200.913849
v 53.478039 225.502777 -203.973572
v -0.000000 226.884842 -193.959625
v 8.084901 226.865967 -194.139709
v 17.564011 226.755371 -194.834518
v 27.189865 226.582657 -196.134094
v 36.763844 226.247284 -198.173431
v 45.786358 225.717896 -200.933517
v 53.434193 225.228012 -203.955292
v 45.744976 225.406082 -201.061417
v 53.390526 224.916443 -204.089447
v 36.735397 225.863342 -198.333115
v 27.197678 226.187622 -196.295700
v 17.526924 226.396515 -194.973267
v 8.078135 226.562378 -194.268768
v -0.000000 226.563736 -194.090424
v -0.000000 228.166901 -196.619843
v 7.941505 228.136322 -196.795380
v 17.427132 227.992218 -197.390060
v 27.102896 227.704773 -198.483246
v 36.519981 227.271454 -200.136856
v 45.492676 226.688141 -202.370270
v 53.259186 226.013168 -204.866394
v 53.536354 225.708344 -204.321686
v 53.410263 225.915604 -204.953430
v 53.276157 226.138016 -205.679581
v 53.590328 225.489700 -204.119522
v 53.583931 225.250854 -204.086243
v 53.549896 224.952835 -204.190994
v 53.567932 224.999374 -204.354980
v 53.588017 225.290451 -204.232727
v 53.572533 225.409912 -204.283646
v 53.551941 225.566422 -204.392776
v 53.429230 225.764130 -204.998001
v 53.281052 226.013214 -205.733017
v 53.033504 226.231140 -205.448349
v 53.138145 226.025940 -204.826691
v 53.261803 225.807236 -204.183289
v 53.358253 225.513443 -203.921295
v 53.315823 225.234131 -203.904861
v 53.272442 224.922287 -204.038361
v 53.199203 226.170380 -205.693604
v 53.194111 226.025406 -205.770294
v 53.248734 226.157654 -205.703339
v 53.246925 226.011200 -205.773926
v 53.071365 226.185364 -205.655853
v 53.050171 226.038467 -205.728378
v 49.753609 226.593430 -204.555298
v 49.839104 226.350342 -203.753510
v 49.947014 226.068756 -202.876770
v 50.069988 225.789810 -202.557404
v 50.081524 225.415176 -202.561646
v 50.045734 225.121292 -202.680511
v 49.735512 226.546539 -204.719162
v 49.684086 226.391586 -204.781693
v 45.352859 226.982300 -203.610840
v 45.284748 226.821243 -203.683395
v 36.404060 227.677429 -201.810974
v 36.357887 227.522949 -201.894135
v 26.967205 228.167969 -200.502792
v 26.910049 227.970901 -200.565048
v 17.314655 228.508194 -199.617142
v 17.310135 228.315186 -199.693329
v 7.835398 228.687515 -199.153748
v 7.802451 228.482498 -199.232330
v -0.000000 228.759766 -198.993073
v -0.000000 228.560654 -199.111786
v -0.000000 227.579468 -194.630493
v 8.049823 227.556549 -194.841873
v 17.490719 227.442017 -195.537369
v 27.166637 227.203796 -196.801147
v 36.614136 226.864639 -198.796661
v 45.565826 226.379013 -201.367767
v 49.930664 226.111786 -203.009903
v 53.243473 225.842697 -204.280380
v 53.364918 225.832077 -204.327591
v 53.517353 225.739929 -204.417664
v 53.533268 225.596481 -204.484741
v -7.941505 228.136322 -196.795380
v -7.822301 228.723587 -198.941254
v -17.427132 227.992218 -197.390060
v -17.331591 228.543137 -199.391251
v -27.102896 227.704773 -198.483246
v -27.030659 228.218048 -200.329849
v -36.519981 227.271454 -200.136856
v -36.442963 227.691116 -201.606003
v -45.492676 226.688141 -202.370270
v -45.410538 227.011520 -203.469055
v -53.154163 226.216354 -205.480515
v -53.033504 226.231140 -205.448349
v -53.138145 226.025940 -204.826691
v -53.259186 226.013168 -204.866394
v -8.069164 227.449738 -194.492828
v -8.071106 227.212097 -194.179642
v -17.501987 227.340912 -195.206268
v -17.549994 227.086105 -194.869827
v -27.177856 227.111633 -196.500519
v -27.201546 226.845367 -196.178696
v -36.630833 226.790359 -198.556992
v -36.680115 226.561630 -198.229431
v -45.578804 226.322861 -201.188416
v -45.686920 226.060440 -200.913849
v -53.383213 225.796448 -204.232025
v -53.261803 225.807236 -204.183289
v -53.358253 225.513443 -203.921295
v -53.478039 225.502777 -203.973572
v -8.084901 226.865967 -194.139709
v -17.564011 226.755371 -194.834518
v -27.189865 226.582657 -196.134094
v -36.763844 226.247284 -198.173431
v -45.786358 225.717896 -200.933517
v -53.315823 225.234131 -203.904861
v -53.434193 225.228012 -203.955292
v -53.272442 224.922287 -204.038361
v -53.390526 224.916443 -204.089447
v -36.735397 225.863342 -198.333115
v -45.744976 225.406082 -201.061417
v -27.197678 226.187622 -196.295700
v -17.526924 226.396515 -194.973267
v -8.078135 226.562378 -194.268768
v -8.049823 227.556549 -194.841873
v -17.490719 227.442017 -195.537369
v -27.166637 227.203796 -196.801147
v -36.614136 226.864639 -198.796661
v -45.565826 226.379013 -201.367767
v -53.243473 225.842697 -204.280380
v -53.364918 225.832077 -204.327591
v -53.517353 225.739929 -204.417664
v -53.410263 225.915604 -204.953430
v -53.276157 226.138016 -205.679581
v -53.590328 225.489700 -204.119522
v -53.536354 225.708344 -204.321686
v -53.583931 225.250854 -204.086243
v -53.549896 224.952835 -204.190994
v -53.567932 224.999374 -204.354980
v -53.588017 225.290451 -204.232727
v -53.572533 225.409912 -204.283646
v -53.551941 225.566422 -204.392776
v -53.533268 225.596481 -204.484741
v -53.429230 225.764130 -204.998001
v -53.281052 226.013214 -205.733017
v -49.753609 226.593430 -204.555298
v -49.839104 226.350342 -203.753510
v -49.930664 226.111786 -203.009903
v -49.947014 226.068756 -202.876770
v -50.069988 225.789810 -202.557404
v -50.081524 225.415176 -202.561646
v -50.045734 225.121292 -202.680511
v -53.248734 226.157654 -205.703339
v -53.199203 226.170380 -205.693604
v -53.246925 226.011200 -205.773926
v -53.194111 226.025406 -205.770294
v -53.071365 226.185364 -205.655853
v -53.050171 226.038467 -205.728378
v -49.735512 226.546539 -204.719162
v -49.684086 226.391586 -204.781693
v -45.352859 226.982300 -203.610840
v -45.284748 226.821243 -203.683395
v -36.404060 227.677429 -201.810974
v -36.357887 227.522949 -201.894135
v -26.967205 228.167969 -200.502792
v -26.910049 227.970901 -200.565048
v -17.314655 228.508194 -199.617142
v -17.310135 228.315186 -199.693329
v -7.835398 228.687515 -199.153748
v -7.802451 228.482498 -199.232330
vt 0.813619 0.621220
vt 0.803650 0.621215
vt 0.804345 0.586354
vt 0.814123 0.586857
vt 0.806481 0.544658
vt 0.815607 0.544988
vt 0.810158 0.502068
vt 0.818579 0.502211
vt 0.815527 0.460449
vt 0.822238 0.460557
vt 0.822577 0.420453
vt 0.827619 0.420581
vt 0.833106 0.385601
vt 0.833022 0.386095
vt 0.830132 0.385789
vt 0.830265 0.385219
vt 0.793797 0.585813
vt 0.792895 0.621196
vt 0.791207 0.621192
vt 0.792073 0.585789
vt 0.796485 0.544416
vt 0.794638 0.544180
vt 0.801089 0.501910
vt 0.799264 0.501763
vt 0.808289 0.460196
vt 0.806545 0.459958
vt 0.817145 0.420316
vt 0.815505 0.419773
vt 0.827244 0.384897
vt 0.827109 0.385440
vt 0.825433 0.384903
vt 0.825591 0.384409
vt 0.789715 0.621188
vt 0.790548 0.585657
vt 0.793192 0.543984
vt 0.798101 0.501652
vt 0.805240 0.459343
vt 0.814194 0.418918
vt 0.824229 0.384640
vt 0.824461 0.384124
vt 0.822833 0.384036
vt 0.823054 0.383406
vt 0.803476 0.458867
vt 0.812764 0.418492
vt 0.796286 0.501191
vt 0.791496 0.543907
vt 0.789098 0.585583
vt 0.788186 0.621184
vt 0.794528 0.621200
vt 0.795398 0.585895
vt 0.798002 0.544453
vt 0.802465 0.501934
vt 0.809387 0.460234
vt 0.817970 0.420337
vt 0.827563 0.385491
vt 0.827679 0.384922
vt 0.827831 0.384018
vt 0.830508 0.384328
vt 0.833858 0.384936
vt 0.825968 0.383743
vt 0.827347 0.384027
vt 0.824943 0.383348
vt 0.823592 0.382565
vt 0.824024 0.381761
vt 0.825414 0.382728
vt 0.826235 0.382874
vt 0.827311 0.383216
vt 0.827941 0.383240
vt 0.830597 0.383595
vt 0.834102 0.384409
vt 0.830642 0.400981
vt 0.826932 0.400818
vt 0.823477 0.400605
vt 0.822859 0.400567
vt 0.821013 0.399965
vt 0.819479 0.399359
vt 0.818166 0.398846
vt 0.833938 0.385054
vt 0.833936 0.385247
vt 0.834429 0.384579
vt 0.834589 0.384921
vt 0.833925 0.385799
vt 0.834657 0.385838
vt 0.831399 0.400974
vt 0.832144 0.401176
vt 0.828276 0.420777
vt 0.829062 0.421052
vt 0.823149 0.460671
vt 0.823926 0.460853
vt 0.819382 0.502455
vt 0.820291 0.502707
vt 0.816614 0.545040
vt 0.817527 0.545060
vt 0.815070 0.586791
vt 0.816035 0.586939
vt 0.814350 0.621229
vt 0.815370 0.621229
vt 0.814110 0.655726
vt 0.804259 0.656218
vt 0.815577 0.698036
vt 0.806332 0.698356
vt 0.818535 0.741494
vt 0.809970 0.741623
vt 0.822194 0.783935
vt 0.815352 0.784033
vt 0.827610 0.824736
vt 0.822466 0.824858
vt 0.833162 0.860404
vt 0.830268 0.860791
vt 0.830134 0.860209
vt 0.833078 0.859902
vt 0.793632 0.656729
vt 0.791895 0.656747
vt 0.796203 0.698573
vt 0.794332 0.698806
vt 0.800744 0.741761
vt 0.798887 0.741905
vt 0.807971 0.784275
vt 0.806193 0.784513
vt 0.816923 0.824988
vt 0.815248 0.825540
vt 0.827193 0.861116
vt 0.825507 0.861614
vt 0.825346 0.861111
vt 0.827054 0.860564
vt 0.790357 0.656873
vt 0.792866 0.699000
vt 0.797704 0.742014
vt 0.804861 0.785138
vt 0.813909 0.826409
vt 0.824355 0.861905
vt 0.824119 0.861379
vt 0.822921 0.862637
vt 0.822696 0.861994
vt 0.812449 0.826842
vt 0.803062 0.785619
vt 0.795857 0.742478
vt 0.791147 0.699072
vt 0.788896 0.656940
vt 0.795246 0.656653
vt 0.797741 0.698541
vt 0.802144 0.741740
vt 0.809091 0.784239
vt 0.817765 0.824968
vt 0.827635 0.861091
vt 0.827517 0.860512
vt 0.830515 0.861698
vt 0.827790 0.862011
vt 0.833927 0.861083
vt 0.825892 0.862292
vt 0.827297 0.862002
vt 0.824849 0.862696
vt 0.823472 0.863496
vt 0.825331 0.863326
vt 0.823916 0.864315
vt 0.826166 0.863176
vt 0.827261 0.862828
vt 0.830605 0.862444
vt 0.827903 0.862803
vt 0.834175 0.861620
vt 0.826882 0.844894
vt 0.830665 0.844732
vt 0.823359 0.845107
vt 0.820846 0.845757
vt 0.822729 0.845146
vt 0.819281 0.846375
vt 0.817941 0.846897
vt 0.834007 0.860766
vt 0.834008 0.860963
vt 0.834672 0.861100
vt 0.834508 0.861448
vt 0.833997 0.860204
vt 0.834743 0.860165
vt 0.831437 0.844740
vt 0.832197 0.844535
vt 0.828281 0.824538
vt 0.829083 0.824258
vt 0.823123 0.783821
vt 0.823916 0.783638
vt 0.819353 0.741247
vt 0.820278 0.740992
vt 0.816598 0.697985
vt 0.817523 0.697966
vt 0.815064 0.655792
vt 0.816037 0.655644
vn -0.000000 0.971862 0.235551
vn 0.000000 0.961944 0.273246
vn 0.021487 0.961775 0.272997
vn 0.019883 0.972822 0.230700
vn 0.045141 0.960991 0.272872
vn 0.041752 0.973583 0.224484
vn 0.074160 0.959074 0.273271
vn 0.069205 0.972293 0.223288
vn 0.108140 0.955627 0.274014
vn 0.101249 0.969330 0.223936
vn 0.138401 0.951611 0.274374
vn 0.127396 0.967908 0.216621
vn 0.474514 0.869363 0.138000
vn 0.150483 0.976702 0.152997
vn 0.182178 0.943585 0.276510
vn 0.458356 0.866237 0.198855
vn 0.031447 0.882582 0.469106
vn 0.000000 0.880710 0.473656
vn 0.000000 0.493890 0.869525
vn 0.047126 0.512235 0.857552
vn 0.064942 0.878738 0.472866
vn 0.096659 0.539052 0.836708
vn 0.107712 0.871651 0.478145
vn 0.156930 0.563844 0.810835
vn 0.158386 0.862609 0.480438
vn 0.225987 0.554731 0.800752
vn 0.205324 0.845185 0.493462
vn 0.292809 0.493370 0.819054
vn 0.487928 0.717929 0.496492
vn 0.282885 0.790969 0.542535
vn 0.369438 0.457704 0.808717
vn 0.582814 0.384128 0.716082
vn 0.000000 -0.148343 0.988936
vn 0.048900 -0.143955 0.988375
vn 0.101373 -0.152103 0.983152
vn 0.164103 -0.154518 0.974266
vn 0.241923 -0.150777 0.958509
vn 0.299254 -0.176068 0.937788
vn 0.366584 -0.203196 0.907925
vn 0.540508 -0.227884 0.809889
vn 0.333854 -0.399832 0.853625
vn 0.503853 -0.382365 0.774551
vn 0.213554 -0.385219 0.897776
vn 0.265039 -0.391724 0.881083
vn 0.151959 -0.375817 0.914150
vn 0.091718 -0.374557 0.922657
vn 0.043792 -0.380628 0.923691
vn 0.000000 -0.384251 0.923229
vn 0.000000 0.958577 0.284834
vn 0.022097 0.958403 0.284562
vn 0.045823 0.957716 0.284043
vn 0.074930 0.956068 0.283408
vn 0.109018 0.953044 0.282528
vn 0.139543 0.949291 0.281736
vn 0.184660 0.941599 0.281587
vn 0.426368 0.879150 0.212849
vn 0.810234 0.585147 0.033526
vn 0.838042 0.545379 0.015725
vn 0.889018 0.454116 -0.058534
vn 0.859295 0.320178 0.398872
vn 0.812387 0.526906 0.249796
vn 0.855479 -0.162208 0.491776
vn 0.845655 -0.271028 0.459795
vn 0.993400 -0.107099 0.041069
vn 0.998443 -0.055622 0.004150
vn 0.994049 0.069423 -0.083950
vn 0.985567 0.122938 -0.116382
vn 0.975423 0.169578 -0.140686
vn 0.978065 0.151056 -0.143427
vn 0.972495 0.148306 -0.179610
vn 0.148864 0.970415 0.190091
vn 0.168628 0.946454 0.275299
vn 0.170376 0.944225 0.281800
vn 0.259258 0.811613 0.523516
vn 0.351500 0.457091 0.817016
vn 0.348806 -0.192560 0.917200
vn 0.316279 -0.395701 0.862200
vn 0.393062 0.753915 -0.526416
vn 0.014505 0.796489 -0.604480
vn 0.335117 0.417197 -0.844774
vn -0.140016 0.459392 -0.877129
vn -0.108291 0.734253 -0.670183
vn -0.199503 0.440623 -0.875243
vn -0.085047 0.776404 -0.624471
vn -0.185758 0.441630 -0.877757
vn -0.057192 0.820715 -0.568468
vn -0.148102 0.468205 -0.871120
vn -0.045476 0.813448 -0.579857
vn -0.119872 0.438073 -0.890911
vn -0.039162 0.778535 -0.626378
vn -0.087209 0.370354 -0.924788
vn -0.023981 0.774227 -0.632453
vn -0.056164 0.354472 -0.933379
vn -0.010775 0.794952 -0.606577
vn -0.025205 0.402991 -0.914857
vn -0.000000 0.807600 -0.589730
vn -0.000000 0.439521 -0.898232
vn -0.019884 0.972821 0.230704
vn -0.021487 0.961774 0.272999
vn -0.041752 0.973583 0.224486
vn -0.045141 0.960990 0.272873
vn -0.069204 0.972293 0.223287
vn -0.074159 0.959075 0.273269
vn -0.101249 0.969331 0.223934
vn -0.108139 0.955627 0.274012
vn -0.127398 0.967909 0.216617
vn -0.138401 0.951612 0.274372
vn -0.474516 0.869361 0.138010
vn -0.458359 0.866235 0.198855
vn -0.182179 0.943585 0.276512
vn -0.150485 0.976701 0.153002
vn -0.031447 0.882575 0.469120
vn -0.047126 0.512228 0.857556
vn -0.064941 0.878729 0.472882
vn -0.096658 0.539045 0.836712
vn -0.107711 0.871645 0.478156
vn -0.156928 0.563841 0.810837
vn -0.158385 0.862606 0.480443
vn -0.225987 0.554729 0.800753
vn -0.205324 0.845185 0.493462
vn -0.292810 0.493371 0.819053
vn -0.487915 0.717937 0.496493
vn -0.582794 0.384141 0.716092
vn -0.369439 0.457707 0.808715
vn -0.282887 0.790970 0.542533
vn -0.048901 -0.143952 0.988376
vn -0.101372 -0.152103 0.983152
vn -0.164102 -0.154522 0.974266
vn -0.241925 -0.150779 0.958508
vn -0.299256 -0.176071 0.937787
vn -0.540502 -0.227888 0.809892
vn -0.366584 -0.203200 0.907924
vn -0.503864 -0.382371 0.774540
vn -0.333856 -0.399838 0.853622
vn -0.265041 -0.391726 0.881081
vn -0.213557 -0.385221 0.897774
vn -0.151959 -0.375820 0.914149
vn -0.091718 -0.374556 0.922657
vn -0.043792 -0.380626 0.923692
vn -0.022097 0.958402 0.284567
vn -0.045823 0.957714 0.284049
vn -0.074930 0.956067 0.283410
vn -0.109018 0.953045 0.282526
vn -0.139543 0.949291 0.281735
vn -0.426375 0.879148 0.212846
vn -0.184661 0.941600 0.281585
vn -0.838044 0.545377 0.015730
vn -0.810236 0.585145 0.033522
vn -0.889024 0.454106 -0.058520
vn -0.859283 0.320203 0.398877
vn -0.812372 0.526930 0.249796
vn -0.855482 -0.162213 0.491771
vn -0.845666 -0.271034 0.459771
vn -0.998443 -0.055627 0.004148
vn -0.993398 -0.107112 0.041070
vn -0.994049 0.069422 -0.083952
vn -0.985569 0.122925 -0.116375
vn -0.978067 0.151052 -0.143417
vn -0.975425 0.169577 -0.140678
vn -0.972499 0.148294 -0.179597
vn -0.168629 0.946454 0.275298
vn -0.148866 0.970415 0.190090
vn -0.170376 0.944224 0.281804
vn -0.351501 0.457092 0.817015
vn -0.259259 0.811613 0.523516
vn -0.348805 -0.192561 0.917200
vn -0.316278 -0.395702 0.862200
vn -0.014531 0.796485 -0.604484
vn -0.393135 0.753881 -0.526410
vn 0.140010 0.459378 -0.877137
vn -0.335173 0.417187 -0.844757
vn 0.108291 0.734264 -0.670172
vn 0.199512 0.440635 -0.875235
vn 0.085047 0.776412 -0.624461
vn 0.185763 0.441637 -0.877752
vn 0.057190 0.820719 -0.568463
vn 0.148103 0.468200 -0.871122
vn 0.045475 0.813445 -0.579862
vn 0.119874 0.438074 -0.890910
vn 0.039162 0.778539 -0.626373
vn 0.087210 0.370363 -0.924784
vn 0.023981 0.774242 -0.632435
vn 0.056163 0.354483 -0.933374
vn 0.010774 0.794960 -0.606567
vn 0.025204 0.402999 -0.914853
s 1
g trim_windshield group7
usemtl initialShadingGroup
f 1/1/1 36/2/2 37/3/3 4/4/4
f 4/4/4 37/3/3 38/5/5 6/6/6
f 6/6/6 38/5/5 39/7/7 8/8/8
f 8/8/8 39/7/7 40/9/9 10/10/10
f 10/10/10 40/9/9 41/11/11 12/12/12
f 14/13/13 55/14/14 56/15/15 42/16/16
f 3/17/17 2/18/18 15/19/19 16/20/20
f 5/21/21 3/17/17 16/20/20 17/22/22
f 7/23/23 5/21/21 17/22/22 18/24/24
f 9/25/25 7/23/23 18/24/24 19/26/26
f 11/27/27 9/25/25 19/26/26 20/28/28
f 13/29/29 57/30/30 58/31/31 21/32/32
f 16/20/20 15/19/19 22/33/33 23/34/34
f 23/34/34 24/35/35 17/22/22 16/20/20
f 24/35/35 25/36/36 18/24/24 17/22/22
f 19/26/26 18/24/24 25/36/36 26/37/37
f 20/28/28 19/26/26 26/37/37 27/38/38
f 58/31/31 59/39/39 28/40/40 21/32/32
f 28/40/40 59/39/39 60/41/41 30/42/42
f 27/38/38 26/37/37 31/43/43 29/44/44
f 26/37/37 25/36/36 32/45/45 31/43/43
f 25/36/36 24/35/35 33/46/46 32/45/45
f 24/35/35 23/34/34 34/47/47 33/46/46
f 23/34/34 22/33/33 35/48/48 34/47/47
f 37/3/3 36/2/2 87/49/49 88/50/50
f 38/5/5 37/3/3 88/50/50 89/51/51
f 39/7/7 38/5/5 89/51/51 90/52/52
f 40/9/9 39/7/7 90/52/52 91/53/53
f 41/11/11 40/9/9 91/53/53 92/54/54
f 42/16/16 56/15/15 94/55/55 95/56/56
f 42/16/16 95/56/56 96/57/57 44/58/58
f 14/13/13 42/16/16 44/58/58 45/59/59
f 46/60/60 43/61/61 13/29/29 21/32/32
f 47/62/62 46/60/60 21/32/32 28/40/40
f 48/63/63 47/62/62 28/40/40 30/42/42
f 47/62/62 48/63/63 49/64/64 50/65/65
f 51/66/66 46/60/60 47/62/62 50/65/65
f 51/66/66 52/67/67 43/61/61 46/60/60
f 96/57/57 97/68/68 53/69/69 44/58/58
f 53/69/69 54/70/70 45/59/59 44/58/58
f 56/15/15 55/14/14 67/71/71 68/72/72
f 93/73/73 94/55/55 56/15/15 68/72/72
f 58/31/31 57/30/30 69/74/74 70/75/75
f 70/75/75 71/76/76 59/39/39 58/31/31
f 60/41/41 59/39/39 71/76/76 72/77/77
f 14/13/13 45/59/59 63/78/78 61/79/79
f 63/78/78 64/80/80 62/81/81 61/79/79
f 45/59/59 54/70/70 64/80/80 63/78/78
f 14/13/13 61/79/79 65/82/82 55/14/14
f 61/79/79 62/81/81 66/83/83 65/82/82
f 68/72/72 67/71/71 12/12/12 41/11/11
f 92/54/54 93/73/73 68/72/72 41/11/11
f 70/75/75 69/74/74 11/27/27 20/28/28
f 27/38/38 71/76/76 70/75/75 20/28/28
f 72/77/77 71/76/76 27/38/38 29/44/44
f 67/71/71 55/14/14 65/82/82 73/84/84
f 73/84/84 65/82/82 66/83/83 74/85/85
f 12/12/12 67/71/71 73/84/84 75/86/86
f 75/86/86 73/84/84 74/85/85 76/87/87
f 10/10/10 12/12/12 75/86/86 77/88/88
f 77/88/88 75/86/86 76/87/87 78/89/89
f 8/8/8 10/10/10 77/88/88 79/90/90
f 79/90/90 77/88/88 78/89/89 80/91/91
f 6/6/6 8/8/8 79/90/90 81/92/92
f 81/92/92 79/90/90 80/91/91 82/93/93
f 4/4/4 6/6/6 81/92/92 83/94/94
f 83/94/94 81/92/92 82/93/93 84/95/95
f 1/1/1 4/4/4 83/94/94 85/96/96
f 85/96/96 83/94/94 84/95/95 86/97/97
f 88/50/50 87/49/49 2/18/18 3/17/17
f 89/51/51 88/50/50 3/17/17 5/21/21
f 90/52/52 89/51/51 5/21/21 7/23/23
f 91/53/53 90/52/52 7/23/23 9/25/25
f 92/54/54 91/53/53 9/25/25 11/27/27
f 69/74/74 93/73/73 92/54/54 11/27/27
f 57/30/30 94/55/55 93/73/73 69/74/74
f 95/56/56 94/55/55 57/30/30 13/29/29
f 96/57/57 95/56/56 13/29/29 43/61/61
f 52/67/67 97/68/68 96/57/57 43/61/61
f 1/1/1 99/98/98 98/99/99 36/2/2
f 99/98/98 101/100/100 100/101/101 98/99/99
f 101/100/100 103/102/102 102/103/103 100/101/101
f 103/102/102 105/104/104 104/105/105 102/103/103
f 105/104/104 107/106/106 106/107/107 104/105/105
f 108/108/108 111/109/109 110/110/110 109/111/111
f 112/112/112 113/113/113 15/19/19 2/18/18
f 114/114/114 115/115/115 113/113/113 112/112/112
f 116/116/116 117/117/117 115/115/115 114/114/114
f 118/118/118 119/119/119 117/117/117 116/116/116
f 120/120/120 121/121/121 119/119/119 118/118/118
f 122/122/122 125/123/123 124/124/124 123/125/125
f 113/113/113 126/126/126 22/33/33 15/19/19
f 126/126/126 113/113/113 115/115/115 127/127/127
f 127/127/127 115/115/115 117/117/117 128/128/128
f 119/119/119 129/129/129 128/128/128 117/117/117
f 121/121/121 130/130/130 129/129/129 119/119/119
f 124/124/124 125/123/123 132/131/131 131/132/132
f 132/131/131 134/133/133 133/134/134 131/132/132
f 130/130/130 136/135/135 135/136/136 129/129/129
f 129/129/129 135/136/136 137/137/137 128/128/128
f 128/128/128 137/137/137 138/138/138 127/127/127
f 127/127/127 138/138/138 139/139/139 126/126/126
f 126/126/126 139/139/139 35/48/48 22/33/33
f 98/99/99 140/140/140 87/49/49 36/2/2
f 100/101/101 141/141/141 140/140/140 98/99/99
f 102/103/103 142/142/142 141/141/141 100/101/101
f 104/105/105 143/143/143 142/142/142 102/103/103
f 106/107/107 144/144/144 143/143/143 104/105/105
f 111/109/109 146/145/145 145/146/146 110/110/110
f 111/109/109 148/147/147 147/148/148 146/145/145
f 108/108/108 149/149/149 148/147/147 111/109/109
f 150/150/150 125/123/123 122/122/122 151/151/151
f 152/152/152 132/131/131 125/123/123 150/150/150
f 153/153/153 134/133/133 132/131/131 152/152/152
f 152/152/152 155/154/154 154/155/155 153/153/153
f 156/156/156 155/154/154 152/152/152 150/150/150
f 156/156/156 150/150/150 151/151/151 157/157/157
f 147/148/148 148/147/147 159/158/158 158/159/159
f 159/158/158 148/147/147 149/149/149 160/160/160
f 110/110/110 162/161/161 161/162/162 109/111/111
f 163/163/163 162/161/161 110/110/110 145/146/146
f 124/124/124 165/164/164 164/165/165 123/125/125
f 165/164/164 124/124/124 131/132/132 166/166/166
f 133/134/134 167/167/167 166/166/166 131/132/132
f 108/108/108 169/168/168 168/169/169 149/149/149
f 168/169/169 169/168/168 171/170/170 170/171/171
f 149/149/149 168/169/169 170/171/171 160/160/160
f 108/108/108 109/111/111 172/172/172 169/168/168
f 169/168/168 172/172/172 173/173/173 171/170/170
f 162/161/161 106/107/107 107/106/106 161/162/162
f 144/144/144 106/107/107 162/161/161 163/163/163
f 165/164/164 121/121/121 120/120/120 164/165/165
f 130/130/130 121/121/121 165/164/164 166/166/166
f 167/167/167 136/135/135 130/130/130 166/166/166
f 161/162/162 174/174/174 172/172/172 109/111/111
f 174/174/174 175/175/175 173/173/173 172/172/172
f 107/106/106 176/176/176 174/174/174 161/162/162
f 176/176/176 177/177/177 175/175/175 174/174/174
f 105/104/104 178/178/178 176/176/176 107/106/106
f 178/178/178 179/179/179 177/177/177 176/176/176
f 103/102/102 180/180/180 178/178/178 105/104/104
f 180/180/180 181/181/181 179/179/179 178/178/178
f 101/100/100 182/182/182 180/180/180 103/102/102
f 182/182/182 183/183/183 181/181/181 180/180/180
f 99/98/98 184/184/184 182/182/182 101/100/100
f 184/184/184 185/185/185 183/183/183 182/182/182
f 1/1/1 85/96/96 184/184/184 99/98/98
f 85/96/96 86/97/97 185/185/185 184/184/184
f 140/140/140 112/112/112 2/18/18 87/49/49
f 141/141/141 114/114/114 112/112/112 140/140/140
f 142/142/142 116/116/116 114/114/114 141/141/141
f 143/143/143 118/118/118 116/116/116 142/142/142
f 144/144/144 120/120/120 118/118/118 143/143/143
f 164/165/165 120/120/120 144/144/144 163/163/163
f 123/125/125 164/165/165 163/163/163 145/146/146
f 146/145/145 122/122/122 123/125/125 145/146/146
f 147/148/148 151/151/151 122/122/122 146/145/145
f 157/157/157 151/151/151 147/148/148 158/159/159
