# This file uses centimeters as units for non-parametric coordinates.

mtllib under_carriage.mtl
g default
v -51.094688 101.868645 -147.671967
v -58.108135 103.214867 -332.053741
v -51.681278 101.758888 -53.132298
v -53.731808 101.942459 -2.856780
v -58.108135 109.668724 -428.612854
v -90.952332 101.758888 -147.359863
v -87.964302 103.156769 -332.277008
v -0.000000 102.148895 3.962881
v 0.000000 101.758888 -53.132298
v 0.000000 101.758888 -147.671967
v 0.000000 103.214867 -332.053741
v 0.000000 109.668724 -428.612854
v -91.528793 101.320221 -53.132298
v -86.030891 101.599625 -30.553169
v -58.108131 114.273430 -459.350128
v 0.000000 114.273430 -459.350098
v -58.108131 119.932938 -471.983398
v 0.000000 119.932938 -471.983398
v -89.692245 109.668724 -428.612854
v -79.088974 114.273430 -459.350098
v -66.531639 119.932938 -470.254517
v -51.681278 128.086609 -53.132298
v -91.528793 127.647697 -53.132298
v -51.681278 145.141281 -61.176266
v -91.528793 144.702469 -61.176262
v -51.681282 159.158325 -80.175354
v -91.528801 158.719559 -80.175354
v -51.681278 161.061920 -114.200920
v -91.528801 160.623077 -114.200920
v -51.681278 143.929962 -139.072388
v -91.528801 143.491150 -139.072388
v -51.681282 122.961708 -147.671967
v -91.528801 122.522911 -147.671967
v -90.355614 101.539604 -147.671967
v -58.108135 115.292839 -424.731750
v -89.692253 115.292839 -424.731750
v -58.108135 124.094421 -424.731750
v -90.520874 124.094421 -424.731720
v -58.096916 141.130859 -411.403839
v -90.785164 141.130859 -421.828674
v -60.176952 153.161835 -400.986328
v -88.714592 159.046768 -404.708740
v -61.110779 158.562988 -375.474335
v -89.355400 161.576675 -374.854034
v -62.148685 151.249756 -355.020233
v -84.634895 152.802246 -352.139191
v -89.014091 161.229248 -390.753876
v -60.908756 157.394379 -388.847412
v -62.185909 137.920425 -338.635712
v -82.349434 137.479858 -339.461700
v -62.019901 128.014786 -336.734558
v -82.349434 130.591370 -334.976349
v -60.424084 117.897552 -333.247314
v -82.987129 119.399315 -333.783997
v 51.094685 101.868645 -147.671967
v 58.108131 103.214867 -332.053711
v 51.681282 101.758888 -53.132298
v 53.731812 101.942459 -2.856780
v 58.108135 109.668724 -428.612823
v 88.438339 101.758888 -147.442444
v 85.805534 103.156769 -332.014038
v 86.030884 101.599625 -30.553169
v 91.528801 101.320221 -53.132301
v 58.108131 114.273430 -459.350098
v 58.108131 119.932938 -471.983368
v 89.692253 109.668724 -428.612823
v 79.088966 114.273430 -459.350128
v 66.531639 119.932938 -471.210480
v 91.528801 127.647697 -53.132301
v 51.681282 128.086609 -53.132298
v 91.528793 144.702469 -61.176266
v 51.681278 145.141281 -61.176266
v 91.528793 158.719559 -80.175362
v 51.681278 159.158325 -80.175354
v 91.528801 160.623077 -114.200920
v 51.681278 161.061920 -114.200920
v 91.528801 143.491150 -139.072388
v 51.681282 143.929962 -139.072388
v 91.528801 122.522911 -147.671967
v 51.681278 122.961708 -147.671967
v 90.355614 101.539604 -147.671967
v 58.108135 115.292839 -424.731720
v 89.692245 115.292839 -424.731720
v 58.108135 124.094421 -424.731720
v 90.520866 124.094421 -424.731720
v 58.096916 141.130859 -411.403870
v 90.785156 141.130859 -421.828674
v 60.176949 153.161835 -400.986328
v 88.714600 159.046768 -404.708740
v 89.014099 161.229248 -390.753876
v 60.908760 157.394379 -388.847412
v 61.110779 158.562988 -375.474335
v 89.355392 161.576675 -374.854004
v 62.148689 151.249756 -355.020233
v 84.634888 152.802246 -352.139191
v 61.217968 137.920425 -338.585358
v 82.349426 137.479858 -339.461670
v 61.051952 128.014786 -336.684235
v 84.242355 130.591370 -334.936615
v 59.456139 117.897552 -333.196991
v 84.880051 119.399315 -333.744293
vt 0.611972 0.318597
vt 0.857806 0.570612
vt 0.500000 0.705997
vt 0.500000 0.318597
vt 0.500000 0.119961
vt 0.714652 0.119775
vt 0.500000 -0.000000
vt 0.617752 0.014329
vt 0.706074 0.903576
vt 0.500000 0.908875
vt 0.699319 0.317941
vt 0.692771 0.706466
vt 0.688534 0.072521
vt 0.700583 0.119961
vt 0.627342 0.973456
vt 0.500000 0.973456
vt 0.627342 1.000000
vt 0.500000 1.000000
vt 0.908133 0.959605
vt 0.673321 0.973456
vt 0.645802 1.000000
vt 0.950991 0.068196
vt 0.768078 0.121514
vt 0.950534 0.109491
vt 0.802153 0.138961
vt 0.950231 0.161255
vt 0.862879 0.161238
vt 0.949123 0.234520
vt 0.863796 0.234475
vt 0.948843 0.298103
vt 0.794916 0.296972
vt 0.949111 0.345656
vt 0.751749 0.313115
vt 0.947101 0.389650
vt 0.717843 0.896613
vt 0.913907 0.945470
vt 0.735501 0.897890
vt 0.923059 0.927959
vt 0.771531 0.873636
vt 0.938205 0.892427
vt 0.797299 0.854194
vt 0.950381 0.838208
vt 0.951153 0.803705
vt 0.878673 0.798991
vt 0.879194 0.765926
vt 0.952033 0.764392
vt 0.799460 0.761920
vt 0.937283 0.702991
vt 0.774778 0.727444
vt 0.926231 0.654518
vt 0.755189 0.722357
vt 0.924733 0.634263
vt 0.735131 0.714111
vt 0.923720 0.606236
vt 0.388028 0.318597
vt 0.293245 0.711535
vt 0.386742 0.119961
vt 0.382249 0.014329
vt 0.171723 0.922690
vt 0.095797 0.559074
vt 0.306190 0.318114
vt 0.085092 0.037471
vt 0.311466 0.072521
vt 0.372658 0.973456
vt 0.372658 1.000000
vt 0.326679 0.973456
vt 0.303442 0.908875
vt 0.354198 1.000000
vt 0.253058 0.122422
vt 0.085462 0.092082
vt 0.218312 0.138916
vt 0.085464 0.131246
vt 0.189807 0.177744
vt 0.085138 0.181032
vt 0.185916 0.247120
vt 0.085445 0.253805
vt 0.220916 0.297838
vt 0.085308 0.317602
vt 0.263736 0.315332
vt 0.084761 0.365315
vt 0.086598 0.409789
vt 0.101861 0.923215
vt 0.282003 0.900828
vt 0.095550 0.904754
vt 0.264171 0.902171
vt 0.085556 0.867198
vt 0.227643 0.877780
vt 0.080318 0.810657
vt 0.201393 0.858346
vt 0.078501 0.778307
vt 0.076583 0.741804
vt 0.142078 0.741306
vt 0.190872 0.834336
vt 0.087734 0.685957
vt 0.197774 0.764829
vt 0.096346 0.640867
vt 0.222200 0.731350
vt 0.092763 0.621896
vt 0.243524 0.725739
vt 0.094209 0.596256
vt 0.263698 0.717519
vt 0.169762 0.410025
vt 0.864587 0.389806
vt 0.864279 0.010498
vt 0.613258 0.119961
vt 0.708906 0.311794
vt 0.865391 0.345579
vt 0.864747 0.298035
vt 0.831263 0.247532
vt 0.829428 0.178381
vt 0.863253 0.109522
vt 0.863632 0.068171
vt 0.951599 0.010495
vt 0.306764 0.122287
vt 0.169307 0.131269
vt 0.167755 0.037496
vt 0.299418 0.119961
vt 0.168873 0.365333
vt 0.168550 0.092103
vt 0.306969 0.315200
vt 0.169315 0.317620
vt 0.170003 0.253825
vt 0.170253 0.181050
vt 0.372658 0.908875
vt 0.105090 0.937639
vt 0.372658 0.705997
vt 0.311960 0.705913
vt 0.149712 0.598367
vt 0.158279 0.565486
vt 0.144019 0.622149
vt 0.142271 0.644803
vt 0.139667 0.691265
vt 0.147753 0.802648
vt 0.143930 0.772582
vt 0.186381 0.807429
vt 0.159203 0.838758
vt 0.167662 0.889072
vt 0.171723 0.909561
vt 0.293942 0.907878
vt 0.627342 0.908875
vt 0.696558 0.908875
vt 0.627342 0.705997
vt 0.932832 0.564267
vt 0.866872 0.607212
vt 0.705547 0.709856
vt 0.873396 0.633472
vt 0.876104 0.658341
vt 0.880565 0.710545
vt 0.807440 0.830440
vt 0.811444 0.803823
vt 0.876786 0.829004
vt 0.871422 0.854762
vt 0.856000 0.900576
vt 0.848563 0.918781
vt 0.842792 0.932921
vn -0.001005 -0.999971 -0.007580
vn -0.001005 -0.999971 -0.007580
vn -0.001005 -0.999971 -0.007580
vn -0.001005 -0.999971 -0.007580
vn -0.001068 -0.999999 -0.000584
vn -0.001068 -0.999999 -0.000584
vn -0.001068 -0.999999 -0.000584
vn -0.001068 -0.999999 -0.000584
vn 0.001611 -0.999984 0.005373
vn 0.001611 -0.999984 0.005373
vn 0.001611 -0.999984 0.005373
vn 0.001611 -0.999984 0.005373
vn 0.000000 -0.997774 -0.066690
vn 0.000000 -0.997774 -0.066690
vn 0.000000 -0.997774 -0.066690
vn 0.000000 -0.997774 -0.066690
vn 0.002398 -0.999969 -0.007456
vn 0.002398 -0.999969 -0.007456
vn 0.002398 -0.999969 -0.007456
vn 0.002398 -0.999969 -0.007456
vn 0.008547 -0.999946 0.005950
vn 0.008547 -0.999946 0.005950
vn 0.008547 -0.999946 0.005950
vn 0.008547 -0.999946 0.005950
vn 0.000000 -0.988964 -0.148155
vn 0.000000 -0.988964 -0.148155
vn 0.000000 -0.988964 -0.148155
vn 0.000000 -0.988964 -0.148155
vn 0.000000 -0.912609 -0.408834
vn 0.000000 -0.912609 -0.408834
vn 0.000000 -0.912609 -0.408834
vn 0.000000 -0.912609 -0.408833
vn 0.000000 -0.988964 -0.148155
vn 0.000000 -0.988964 -0.148155
vn 0.000000 -0.988964 -0.148155
vn 0.000000 -0.988964 -0.148155
vn -0.026137 -0.895386 -0.444524
vn -0.026137 -0.895386 -0.444523
vn -0.026137 -0.895386 -0.444523
vn -0.026137 -0.895386 -0.444524
vn 0.000000 0.000000 -1.000000
vn 0.000000 0.000000 -1.000000
vn 0.000000 0.000000 -1.000000
vn 0.000000 0.000000 -1.000000
vn 0.004698 -0.426583 -0.904436
vn 0.004698 -0.426583 -0.904436
vn 0.007219 -0.655508 -0.755153
vn 0.007240 -0.657481 -0.753436
vn 0.010544 -0.957519 -0.288177
vn 0.010548 -0.957896 -0.286923
vn 0.010659 -0.967954 0.250903
vn 0.010663 -0.968259 0.249721
vn 0.007255 -0.658832 0.752255
vn 0.007281 -0.661119 0.750246
vn 0.002240 -0.203396 0.979094
vn 0.002212 -0.200832 0.979623
vn -0.000000 -0.000001 1.000000
vn -0.000000 -0.000001 1.000000
vn -0.000000 -0.567972 0.823048
vn -0.000000 -0.567972 0.823048
vn 0.000000 -0.257876 0.966178
vn 0.000000 -0.249336 0.968417
vn -0.100737 -0.300419 0.948473
vn -0.102870 -0.306778 0.946205
vn -0.192537 -0.560989 0.805121
vn -0.183811 -0.537373 0.823070
vn -0.222580 -0.793167 0.566873
vn -0.222168 -0.797572 0.560821
vn -0.154401 -0.978352 0.137794
vn -0.153668 -0.978749 0.135781
vn -0.115725 -0.977363 -0.177114
vn -0.115967 -0.978423 -0.171000
vn -0.087615 -0.866090 -0.492150
vn -0.087492 -0.865622 -0.492995
vn -0.049665 -0.618914 -0.783887
vn -0.049854 -0.625200 -0.778871
vn -0.045344 -0.270484 -0.961656
vn -0.044762 -0.280625 -0.958773
vn -0.006176 -0.126933 -0.991892
vn -0.008214 -0.131281 -0.991311
vn -0.994162 -0.092965 -0.054757
vn -0.994163 -0.092965 -0.054757
vn -0.994162 -0.092965 -0.054757
vn -0.994162 -0.092965 -0.054757
vn 0.012016 -0.088015 -0.996047
vn 0.012016 -0.088015 -0.996047
vn -0.995475 -0.089735 -0.031279
vn -0.995474 -0.089735 -0.031279
vn -0.995474 -0.089735 -0.031279
vn -0.995475 -0.089735 -0.031279
vn -0.993669 -0.111404 -0.014518
vn -0.993669 -0.111404 -0.014518
vn -0.993669 -0.111404 -0.014518
vn -0.993669 -0.111404 -0.014518
vn -0.998643 0.015370 -0.049767
vn -0.998643 0.015370 -0.049767
vn -0.998643 0.015370 -0.049767
vn -0.998643 0.015370 -0.049767
vn -0.999330 0.000130 -0.036607
vn -0.999330 0.000130 -0.036607
vn -0.999330 0.000130 -0.036607
vn -0.999330 0.000130 -0.036607
vn -0.999920 -0.012369 -0.002774
vn -0.999920 -0.012369 -0.002774
vn -0.999920 -0.012369 -0.002774
vn -0.999920 -0.012369 -0.002774
vn -1.000000 -0.000000 -0.000000
vn -1.000000 -0.000000 -0.000000
vn -1.000000 -0.000000 -0.000000
vn -1.000000 -0.000000 -0.000000
vn -1.000000 0.000000 -0.000000
vn -1.000000 0.000000 -0.000000
vn -1.000000 0.000000 -0.000000
vn -1.000000 0.000000 -0.000000
vn 0.001005 -0.999971 -0.007580
vn 0.001005 -0.999971 -0.007580
vn 0.001005 -0.999971 -0.007580
vn 0.001005 -0.999971 -0.007580
vn 0.001068 -0.999999 -0.000584
vn 0.001068 -0.999999 -0.000584
vn 0.001068 -0.999999 -0.000584
vn 0.001068 -0.999999 -0.000584
vn -0.001611 -0.999984 0.005373
vn -0.001611 -0.999984 0.005373
vn -0.001611 -0.999984 0.005373
vn -0.001611 -0.999984 0.005373
vn 0.000000 -0.997774 -0.066690
vn 0.000000 -0.997774 -0.066690
vn 0.000000 -0.997774 -0.066690
vn 0.000000 -0.997774 -0.066690
vn -0.002550 -0.999969 -0.007468
vn -0.002550 -0.999969 -0.007468
vn -0.002550 -0.999969 -0.007468
vn -0.002550 -0.999969 -0.007468
vn -0.008547 -0.999946 0.005950
vn -0.008547 -0.999946 0.005950
vn -0.008547 -0.999946 0.005950
vn -0.008547 -0.999946 0.005950
vn 0.000000 -0.988964 -0.148155
vn 0.000000 -0.988964 -0.148155
vn 0.000000 -0.988964 -0.148155
vn 0.000000 -0.988964 -0.148155
vn 0.000000 -0.912609 -0.408834
vn 0.000000 -0.912609 -0.408834
vn 0.000000 -0.912609 -0.408833
vn 0.000000 -0.912609 -0.408834
vn 0.000000 -0.988964 -0.148155
vn 0.000000 -0.988964 -0.148155
vn 0.000000 -0.988964 -0.148155
vn 0.000000 -0.988964 -0.148155
vn 0.011149 -0.905513 -0.424171
vn 0.011149 -0.905513 -0.424171
vn 0.011149 -0.905513 -0.424171
vn 0.011149 -0.905513 -0.424171
vn -0.000000 0.000000 -1.000000
vn -0.002024 -0.183743 -0.982972
vn -0.001992 -0.180886 -0.983502
vn -0.000000 0.000000 -1.000000
vn -0.007241 -0.657481 -0.753436
vn -0.007219 -0.655508 -0.755153
vn -0.010548 -0.957896 -0.286923
vn -0.010544 -0.957519 -0.288177
vn -0.010663 -0.968259 0.249721
vn -0.010659 -0.967954 0.250903
vn -0.007281 -0.661119 0.750246
vn -0.007255 -0.658832 0.752255
vn -0.002212 -0.200832 0.979623
vn -0.002240 -0.203396 0.979094
vn -0.000000 -0.000001 1.000000
vn -0.000000 -0.000001 1.000000
vn -0.000000 -0.567974 0.823047
vn -0.000000 -0.249340 0.968416
vn -0.000000 -0.257879 0.966177
vn -0.000000 -0.567974 0.823047
vn 0.102870 -0.306778 0.946206
vn 0.100737 -0.300418 0.948473
vn 0.183811 -0.537372 0.823070
vn 0.192537 -0.560988 0.805122
vn 0.222168 -0.797572 0.560821
vn 0.222580 -0.793167 0.566873
vn 0.154402 -0.978352 0.137794
vn 0.115967 -0.978423 -0.170999
vn 0.115725 -0.977363 -0.177113
vn 0.153668 -0.978749 0.135781
vn 0.086348 -0.864880 -0.494497
vn 0.086073 -0.863869 -0.496309
vn 0.046467 -0.611277 -0.790051
vn 0.046501 -0.612143 -0.789379
vn 0.039537 -0.273237 -0.961134
vn 0.039730 -0.269237 -0.962254
vn 0.012322 -0.141229 -0.989900
vn 0.009563 -0.134279 -0.990897
vn 0.990483 -0.128985 -0.048028
vn 0.990483 -0.128985 -0.048028
vn 0.990483 -0.128985 -0.048028
vn 0.990483 -0.128985 -0.048028
vn -0.007003 -0.092424 -0.995695
vn -0.007003 -0.092424 -0.995695
vn 0.995924 -0.087806 -0.020611
vn 0.995924 -0.087806 -0.020611
vn 0.995924 -0.087806 -0.020611
vn 0.995924 -0.087806 -0.020611
vn 0.997843 -0.065095 -0.008483
vn 0.997843 -0.065095 -0.008483
vn 0.997843 -0.065095 -0.008483
vn 0.997843 -0.065095 -0.008483
vn 0.999236 0.010256 -0.037718
vn 0.999236 0.010256 -0.037718
vn 0.999236 0.010256 -0.037718
vn 0.999236 0.010256 -0.037718
vn 0.999330 0.000130 -0.036607
vn 0.999330 0.000130 -0.036607
vn 0.999330 0.000130 -0.036607
vn 0.999330 0.000130 -0.036607
vn 0.999920 -0.012369 -0.002774
vn 0.999920 -0.012369 -0.002774
vn 0.999920 -0.012369 -0.002774
vn 0.999920 -0.012369 -0.002774
vn 1.000000 0.000000 0.000000
vn 1.000000 0.000000 0.000000
vn 1.000000 0.000000 0.000000
vn 1.000000 0.000000 0.000000
vn 1.000000 0.000000 0.000000
vn 1.000000 0.000000 0.000000
vn 1.000000 0.000000 0.000000
vn 1.000000 0.000000 0.000000
s off
g under_carriage group7
usemtl initialShadingGroup
f 1/1/1 2/142/2 11/3/3 10/4/4
f 10/4/5 9/5/6 3/105/7 1/1/8
f 9/5/9 8/7/10 4/8/11 3/105/12
f 2/142/13 5/140/14 12/10/15 11/3/16
f 1/1/17 6/11/18 7/12/19 2/142/20
f 4/8/21 14/13/22 13/14/23 3/105/24
f 5/140/25 15/15/26 16/16/27 12/10/28
f 15/15/29 17/17/30 18/18/31 16/16/32
f 5/140/33 19/141/34 20/20/35 15/15/36
f 15/15/37 20/20/38 21/21/39 17/17/40
f 3/104/41 13/113/42 23/22/43 22/112/44
s 1
f 22/112/45 23/22/46 25/24/47 24/111/48
f 24/111/48 25/24/47 27/26/49 26/27/50
f 26/27/50 27/26/49 29/28/51 28/29/52
f 28/29/52 29/28/51 31/30/53 30/108/54
f 30/108/54 31/30/53 33/32/55 32/107/56
f 32/107/56 33/32/55 34/34/57 1/103/58
s 2
f 19/19/59 5/155/60 35/154/61 36/36/62
f 36/36/62 35/154/61 37/153/63 38/38/64
f 38/38/64 37/153/63 39/152/65 40/40/66
f 40/40/66 39/152/65 41/151/67 42/42/68
f 47/43/69 48/44/70 43/45/71 44/46/72
f 44/46/72 43/45/71 45/148/73 46/48/74
f 42/42/68 41/151/67 48/44/70 47/43/69
f 46/48/74 45/148/73 49/147/75 50/50/76
f 50/50/76 49/147/75 51/146/77 52/52/78
f 52/52/78 51/146/77 53/144/79 54/54/80
s off
f 41/41/81 39/39/82 49/49/83 45/47/84
s 2
f 54/54/80 53/144/79 2/2/85 7/143/86
s off
f 37/37/87 35/35/88 53/53/89 51/51/90
f 53/53/91 35/35/92 5/9/93 2/145/94
f 51/51/95 49/49/96 39/39/97 37/37/98
f 45/47/99 43/150/100 48/149/101 41/41/102
f 3/6/103 22/23/104 32/33/105 1/106/106
f 30/31/107 24/25/108 26/110/109 28/109/110
f 32/33/111 22/23/112 24/25/113 30/31/114
f 55/55/115 10/4/116 11/3/117 56/126/118
f 10/4/119 55/55/120 57/57/121 9/5/122
f 9/5/123 57/57/124 58/58/125 8/7/126
f 56/126/127 11/3/128 12/10/129 59/124/130
f 55/55/131 56/126/132 61/127/133 60/61/134
f 58/58/135 57/57/136 63/117/137 62/63/138
f 59/124/139 12/10/140 16/16/141 64/64/142
f 64/64/143 16/16/144 18/18/145 65/65/146
f 59/124/147 64/64/148 67/66/149 66/67/150
f 64/64/151 65/65/152 68/68/153 67/66/154
s 3
f 57/116/155 70/119/156 69/70/157 63/62/158
f 70/119/156 72/115/159 71/72/160 69/70/157
f 72/115/159 74/123/161 73/74/162 71/72/160
f 74/123/161 76/122/163 75/76/164 73/74/162
f 76/122/163 78/121/165 77/78/166 75/76/164
f 78/121/165 80/118/167 79/80/168 77/78/166
f 80/118/167 55/102/169 81/81/170 79/80/168
s 4
f 66/125/171 83/82/172 82/138/173 59/59/174
f 83/82/172 85/84/175 84/137/176 82/138/173
f 85/84/175 87/86/177 86/136/178 84/137/176
f 87/86/177 89/88/179 88/133/180 86/136/178
f 90/90/181 93/91/182 92/92/183 91/134/184
f 93/91/182 95/94/185 94/132/186 92/92/183
f 89/88/179 90/90/181 91/134/184 88/133/180
f 95/94/185 97/96/187 96/131/188 94/132/186
f 97/96/187 99/98/189 98/130/190 96/131/188
f 99/98/189 101/100/191 100/128/192 98/130/190
s off
f 88/89/193 94/95/194 96/97/195 86/87/196
s 4
f 101/100/191 61/60/197 56/129/198 100/128/192
s off
f 84/85/199 98/99/200 100/101/201 82/83/202
f 100/101/203 56/56/204 59/139/205 82/83/206
f 98/99/207 84/85/208 86/87/209 96/97/210
f 94/95/211 88/89/212 91/93/213 92/135/214
f 57/114/215 55/120/216 80/79/217 70/69/218
f 78/77/219 76/75/220 74/73/221 72/71/222
f 80/79/223 78/77/224 72/71/225 70/69/226
