# This file uses centimeters as units for non-parametric coordinates.

mtllib wheelwell.mtl
g default
v 93.090645 154.592758 -392.918365
v 93.090645 148.241745 -405.456268
v 93.090645 138.349747 -415.406464
v 92.116936 125.885132 -421.794830
v 91.630936 112.068001 -423.996094
v 92.363220 112.067993 -334.043854
v 93.090645 125.885132 -336.245148
v 93.090645 138.349747 -342.633545
v 93.090645 148.241699 -352.583679
v 93.090645 154.592758 -365.121582
v 93.090645 156.781158 -379.019958
v 66.636909 154.592758 -392.918365
v 66.636917 148.241745 -405.456268
v 66.636917 138.349747 -415.406464
v 66.636917 125.885132 -421.794830
v 66.636917 112.068001 -423.996094
v 66.636917 112.068001 -334.043854
v 66.636917 125.885132 -336.245148
v 66.636909 138.349747 -342.633545
v 66.636917 148.241699 -352.583679
v 66.636909 154.592758 -365.121582
v 66.636917 156.781158 -379.019958
v 82.348083 99.220047 -423.665344
v 66.636917 99.220047 -423.665344
v 83.819855 95.453323 -334.374603
v 66.636917 95.453323 -334.374603
v 59.523773 148.898926 -391.554810
v 59.523773 143.159378 -402.862579
v 59.523773 134.219757 -411.836548
v 59.523773 122.955215 -417.598175
v 59.523773 110.468369 -419.583466
v 59.523773 110.468369 -338.456512
v 59.523773 122.955215 -340.441833
v 59.523773 134.219757 -346.203430
v 59.523773 143.159332 -355.177338
v 59.523773 148.898926 -366.485199
v 59.523773 150.876633 -379.019989
v 59.523773 99.220055 -419.285156
v 59.523773 95.453323 -338.754791
v 72.987617 95.453323 -334.374603
v 72.987617 112.068001 -334.043854
v 72.987617 125.885132 -336.245148
v 72.987617 138.349762 -342.633545
v 72.987617 148.241714 -352.583679
v 72.987617 154.592773 -365.121582
v 72.987617 156.781158 -379.019958
v 72.987617 154.592773 -392.918365
v 72.987617 148.241760 -405.456268
v 72.987617 138.349762 -415.406464
v 72.987617 125.885132 -421.794830
v 72.987617 112.068001 -423.996094
v 72.987617 99.220047 -423.665344
v 89.089142 100.193062 -334.280243
v 72.987617 100.193062 -334.280243
v 66.636917 100.193062 -334.280243
v 59.523773 99.736732 -338.669678
v 87.236923 102.735588 -423.772583
v 72.987617 102.735588 -423.772583
v 66.636917 102.735588 -423.772583
v 59.523773 102.217079 -419.381866
v 93.090645 154.592758 -113.962975
v 93.090645 148.241745 -126.500893
v 93.090645 138.349747 -136.451050
v 93.090645 125.885132 -142.839447
v 92.721268 112.068001 -145.040710
v 92.363220 112.068001 -55.088474
v 93.090645 125.885132 -57.289768
v 93.090645 138.349747 -63.678154
v 93.090645 148.241699 -73.628296
v 93.090645 154.592758 -86.166206
v 93.090645 156.781158 -100.064583
v 62.891289 154.592758 -113.962967
v 62.891289 148.241745 -126.500885
v 62.891289 138.349747 -136.451035
v 62.891289 125.885132 -142.839447
v 62.891289 112.068001 -145.040710
v 62.891289 112.068001 -55.088474
v 62.891289 125.885132 -57.289768
v 62.891289 138.349747 -63.678154
v 62.891289 148.241699 -73.628296
v 62.891289 154.592758 -86.166206
v 62.891289 156.781158 -100.064575
v 88.201805 97.323357 -144.941742
v 62.891289 97.323357 -144.709991
v 89.174065 95.453323 -55.419228
v 62.891289 95.453323 -55.419228
v 55.778145 148.898941 -112.599388
v 55.778145 143.159393 -123.907211
v 55.778145 134.219772 -132.881165
v 55.778145 122.955215 -138.642776
v 55.778145 110.468369 -140.628082
v 55.778145 110.468369 -59.501114
v 55.778145 122.955215 -61.486435
v 55.778145 134.219772 -67.248047
v 55.778145 143.159348 -76.221970
v 55.778145 148.898941 -87.529785
v 55.778145 150.876617 -100.064583
v 55.778145 97.323357 -140.329803
v 55.778145 95.453323 -59.799412
v 72.987617 95.453323 -55.419228
v 72.987617 112.068001 -55.088474
v 72.987617 125.885132 -57.289768
v 72.987617 138.349762 -63.678154
v 72.987617 148.241714 -73.628296
v 72.987617 154.592773 -86.166206
v 72.987617 156.781158 -100.064583
v 72.987617 154.592773 -113.962975
v 72.987617 148.241760 -126.500893
v 72.987617 138.349762 -136.451050
v 72.987617 125.885132 -142.839447
v 72.987617 112.068001 -145.040710
v 72.987625 97.323357 -144.709991
v 92.049187 100.193062 -55.324867
v 72.987617 100.193062 -55.324867
v 62.891289 100.193077 -55.324867
v 55.778145 99.736732 -59.714310
v 92.770767 100.838905 -144.817200
v 72.987617 100.838905 -144.817200
v 62.891289 100.838905 -144.817184
v 55.778145 100.320389 -140.426483
vt 0.844617 0.482551
vt 0.799503 0.484540
vt 0.797390 0.453759
vt 0.842680 0.450115
vt 0.794109 0.422876
vt 0.839605 0.417666
vt 0.789722 0.391761
vt 0.835486 0.385178
vt 0.784357 0.360240
vt 0.830549 0.352733
vt 0.829385 0.673889
vt 0.786479 0.667093
vt 0.791470 0.636700
vt 0.835707 0.642894
vt 0.795448 0.606499
vt 0.839765 0.611549
vt 0.798342 0.576225
vt 0.842954 0.579627
vt 0.800017 0.545792
vt 0.844866 0.547401
vt 0.800403 0.515216
vt 0.845403 0.514983
vt 0.779690 0.334468
vt 0.778213 0.326298
vt 0.813539 0.320352
vt 0.825501 0.326751
vt 0.824383 0.700321
vt 0.781844 0.693353
vt 0.777785 0.485631
vt 0.757242 0.485753
vt 0.755072 0.455720
vt 0.775569 0.455748
vt 0.751782 0.425601
vt 0.772130 0.425703
vt 0.747419 0.395478
vt 0.767509 0.395419
vt 0.741648 0.365624
vt 0.761573 0.364528
vt 0.764506 0.663104
vt 0.745345 0.662202
vt 0.750620 0.633482
vt 0.769985 0.633337
vt 0.754293 0.604430
vt 0.774032 0.603984
vt 0.756778 0.575047
vt 0.776876 0.574590
vt 0.758121 0.545432
vt 0.778478 0.545077
vt 0.758279 0.515665
vt 0.778781 0.515416
vt 0.756252 0.338977
vt 0.736398 0.341741
vt 0.734884 0.334660
vt 0.754593 0.330771
vt 0.759237 0.689158
vt 0.740165 0.686440
vt 0.816234 0.709877
vt 0.780013 0.703971
vt 0.757165 0.699832
vt 0.738173 0.696158
vt 0.844617 0.482551
vt 0.799503 0.484540
vt 0.797390 0.453759
vt 0.842680 0.450115
vt 0.794109 0.422876
vt 0.839605 0.417666
vt 0.789722 0.391761
vt 0.835486 0.385178
vt 0.784357 0.360240
vt 0.830549 0.352733
vt 0.829385 0.673889
vt 0.786479 0.667093
vt 0.791470 0.636700
vt 0.835707 0.642894
vt 0.795448 0.606499
vt 0.839765 0.611549
vt 0.798342 0.576225
vt 0.842954 0.579627
vt 0.800017 0.545792
vt 0.844866 0.547401
vt 0.800403 0.515216
vt 0.845403 0.514983
vt 0.779690 0.334468
vt 0.778213 0.326298
vt 0.813539 0.320352
vt 0.825501 0.326751
vt 0.824383 0.700321
vt 0.781844 0.693353
vt 0.777785 0.485631
vt 0.757242 0.485753
vt 0.755072 0.455720
vt 0.775569 0.455748
vt 0.751782 0.425601
vt 0.772130 0.425703
vt 0.747419 0.395478
vt 0.767509 0.395419
vt 0.741648 0.365624
vt 0.761573 0.364528
vt 0.764506 0.663104
vt 0.745345 0.662202
vt 0.750620 0.633482
vt 0.769985 0.633337
vt 0.754293 0.604430
vt 0.774032 0.603984
vt 0.756778 0.575047
vt 0.776876 0.574590
vt 0.758121 0.545432
vt 0.778478 0.545077
vt 0.758279 0.515665
vt 0.778781 0.515416
vt 0.756252 0.338977
vt 0.736398 0.341741
vt 0.734884 0.334660
vt 0.754593 0.330771
vt 0.759237 0.689158
vt 0.740165 0.686440
vt 0.816234 0.709877
vt 0.780013 0.703971
vt 0.757165 0.699832
vt 0.738173 0.696158
vn -0.000000 -0.951587 0.307379
vn 0.000000 -0.951587 0.307379
vn 0.000000 -0.810652 0.585529
vn -0.000000 -0.810652 0.585529
vn -0.000000 -0.591230 0.806503
vn -0.000000 -0.594495 0.804100
vn 0.000000 -0.312813 0.949815
vn 0.000000 -0.318468 0.947934
vn 0.000000 -0.089509 0.995986
vn 0.000000 -0.105047 0.994467
vn -0.000001 -0.090382 -0.995907
vn -0.000001 -0.079766 -0.996814
vn -0.000001 -0.311707 -0.950178
vn -0.000001 -0.314580 -0.949231
vn -0.000000 -0.590041 -0.807373
vn -0.000000 -0.590041 -0.807373
vn -0.000000 -0.810651 -0.585530
vn -0.000001 -0.810651 -0.585530
vn -0.000000 -0.951586 -0.307382
vn -0.000001 -0.951586 -0.307382
vn 0.000000 -1.000000 0.000000
vn -0.000000 -1.000000 0.000000
vn 0.000000 0.025454 0.999676
vn 0.000000 0.030490 0.999535
vn 0.000000 0.030490 0.999535
vn 0.000000 0.024450 0.999701
vn -0.000000 0.019903 -0.999802
vn -0.000000 0.019903 -0.999802
vn 0.379514 -0.881096 0.282204
vn 0.634343 -0.734446 0.241244
vn 0.620697 -0.631182 0.465129
vn 0.368903 -0.756122 0.540546
vn 0.597622 -0.464297 0.653664
vn 0.351466 -0.557750 0.751922
vn 0.565157 -0.243354 0.788275
vn 0.327842 -0.301488 0.895335
vn 0.536529 -0.064980 0.841376
vn 0.310925 -0.085203 0.946608
vn 0.309186 -0.076714 -0.947902
vn 0.535466 -0.057297 -0.842611
vn 0.565160 -0.243354 -0.788273
vn 0.327843 -0.301489 -0.895334
vn 0.597620 -0.464297 -0.653665
vn 0.351464 -0.557750 -0.751922
vn 0.620695 -0.631183 -0.465130
vn 0.368902 -0.756122 -0.540546
vn 0.634343 -0.734445 -0.241244
vn 0.379514 -0.881095 -0.282206
vn 0.638844 -0.769337 0.000000
vn 0.383067 -0.923720 -0.000000
vn 0.303302 0.024635 0.952576
vn 0.523889 0.022349 0.851493
vn 0.523914 0.026661 0.851354
vn 0.300237 0.029479 0.953409
vn 0.305138 0.018944 -0.952120
vn 0.524301 0.016931 -0.851365
vn 0.000000 0.019904 -0.999802
vn 0.000000 0.019904 -0.999802
vn 0.303662 0.018956 -0.952591
vn 0.524279 0.016934 -0.851378
vn -0.000001 -0.951587 0.307380
vn 0.000000 -0.951587 0.307379
vn 0.000000 -0.810651 0.585529
vn -0.000001 -0.810651 0.585529
vn 0.000000 -0.590041 0.807374
vn -0.000000 -0.590041 0.807374
vn 0.000000 -0.311123 0.950370
vn 0.000000 -0.312638 0.949873
vn 0.000000 -0.078954 0.996878
vn 0.000000 -0.079681 0.996820
vn 0.000000 -0.079610 -0.996826
vn 0.000000 -0.077033 -0.997029
vn -0.000000 -0.311576 -0.950221
vn -0.000000 -0.314580 -0.949231
vn 0.000000 -0.590041 -0.807373
vn -0.000000 -0.590041 -0.807373
vn 0.000000 -0.810651 -0.585529
vn -0.000001 -0.810651 -0.585529
vn -0.000000 -0.951586 -0.307382
vn -0.000001 -0.951586 -0.307382
vn -0.000000 -1.000000 0.000000
vn -0.000000 -1.000000 0.000000
vn 0.000942 0.016976 0.999855
vn 0.004199 0.006867 0.999968
vn 0.006622 -0.006768 0.999955
vn 0.000689 0.017127 0.999853
vn 0.000000 0.019903 -0.999802
vn -0.000000 0.019903 -0.999802
vn 0.301935 -0.907733 0.291300
vn 0.634342 -0.734446 0.241244
vn 0.620694 -0.631184 0.465131
vn 0.293040 -0.777169 0.556898
vn 0.597618 -0.464299 0.653667
vn 0.278516 -0.570939 0.772307
vn 0.565156 -0.243354 0.788275
vn 0.259012 -0.306379 0.915994
vn 0.535733 -0.059382 0.842297
vn 0.245130 -0.079611 0.966216
vn 0.244601 -0.077258 -0.966541
vn 0.535463 -0.057296 -0.842613
vn 0.565157 -0.243355 -0.788274
vn 0.259012 -0.306379 -0.915994
vn 0.597618 -0.464298 -0.653666
vn 0.278516 -0.570939 -0.772307
vn 0.620694 -0.631183 -0.465131
vn 0.293040 -0.777169 -0.556899
vn 0.634343 -0.734446 -0.241245
vn 0.301935 -0.907733 -0.291302
vn 0.638844 -0.769336 0.000000
vn 0.304924 -0.952377 -0.000000
vn 0.242200 0.021730 0.969983
vn 0.524213 0.019373 0.851367
vn 0.523911 0.026651 0.851356
vn 0.237393 0.029920 0.970953
vn 0.242323 0.019302 -0.970004
vn 0.524298 0.016932 -0.851366
vn 0.000000 0.019904 -0.999802
vn -0.000000 0.019904 -0.999802
vn 0.240821 0.019311 -0.970377
vn 0.524278 0.016933 -0.851379
s 1
g wheelwell group7
usemtl initialShadingGroup
f 1/1/1 47/2/2 48/3/3 2/4/4
f 2/4/4 48/3/3 49/5/5 3/6/6
f 3/6/6 49/5/5 50/7/7 4/8/8
f 4/8/8 50/7/7 51/9/9 5/10/10
f 6/11/11 41/12/12 42/13/13 7/14/14
f 7/14/14 42/13/13 43/15/15 8/16/16
f 8/16/16 43/15/15 44/17/17 9/18/18
f 9/18/18 44/17/17 45/19/19 10/20/20
f 10/20/20 45/19/19 46/21/21 11/22/22
f 11/22/22 46/21/21 47/2/2 1/1/1
f 58/23/23 52/24/24 23/25/25 57/26/26
f 6/11/11 53/27/27 54/28/28 41/12/12
f 12/29/29 27/30/30 28/31/31 13/32/32
f 13/32/32 28/31/31 29/33/33 14/34/34
f 14/34/34 29/33/33 30/35/35 15/36/36
f 15/36/36 30/35/35 31/37/37 16/38/38
f 17/39/39 32/40/40 33/41/41 18/42/42
f 18/42/42 33/41/41 34/43/43 19/44/44
f 19/44/44 34/43/43 35/45/45 20/46/46
f 20/46/46 35/45/45 36/47/47 21/48/48
f 21/48/48 36/47/47 37/49/49 22/50/50
f 22/50/50 37/49/49 27/30/30 12/29/29
f 59/51/51 60/52/52 38/53/53 24/54/54
f 55/55/55 56/56/56 32/40/40 17/39/39
f 41/12/12 54/28/28 55/55/55 17/39/39
f 42/13/13 41/12/12 17/39/39 18/42/42
f 43/15/15 42/13/13 18/42/42 19/44/44
f 44/17/17 43/15/15 19/44/44 20/46/46
f 45/19/19 44/17/17 20/46/46 21/48/48
f 46/21/21 45/19/19 21/48/48 22/50/50
f 47/2/2 46/21/21 22/50/50 12/29/29
f 48/3/3 47/2/2 12/29/29 13/32/32
f 49/5/5 48/3/3 13/32/32 14/34/34
f 50/7/7 49/5/5 14/34/34 15/36/36
f 51/9/9 50/7/7 15/36/36 16/38/38
f 59/51/51 24/54/54 52/24/24 58/23/23
f 53/27/27 25/57/57 40/58/58 54/28/28
f 55/55/55 54/28/28 40/58/58 26/59/59
f 26/59/59 39/60/60 56/56/56 55/55/55
f 51/9/9 58/23/23 57/26/26 5/10/10
f 16/38/38 59/51/51 58/23/23 51/9/9
f 16/38/38 31/37/37 60/52/52 59/51/51
s 6
f 61/61/61 107/62/62 108/63/63 62/64/64
f 62/64/64 108/63/63 109/65/65 63/66/66
f 63/66/66 109/65/65 110/67/67 64/68/68
f 64/68/68 110/67/67 111/69/69 65/70/70
f 66/71/71 101/72/72 102/73/73 67/74/74
f 67/74/74 102/73/73 103/75/75 68/76/76
f 68/76/76 103/75/75 104/77/77 69/78/78
f 69/78/78 104/77/77 105/79/79 70/80/80
f 70/80/80 105/79/79 106/81/81 71/82/82
f 71/82/82 106/81/81 107/62/62 61/61/61
f 118/83/83 112/84/84 83/85/85 117/86/86
f 66/71/71 113/87/87 114/88/88 101/72/72
f 72/89/89 87/90/90 88/91/91 73/92/92
f 73/92/92 88/91/91 89/93/93 74/94/94
f 74/94/94 89/93/93 90/95/95 75/96/96
f 75/96/96 90/95/95 91/97/97 76/98/98
f 77/99/99 92/100/100 93/101/101 78/102/102
f 78/102/102 93/101/101 94/103/103 79/104/104
f 79/104/104 94/103/103 95/105/105 80/106/106
f 80/106/106 95/105/105 96/107/107 81/108/108
f 81/108/108 96/107/107 97/109/109 82/110/110
f 82/110/110 97/109/109 87/90/90 72/89/89
f 119/111/111 120/112/112 98/113/113 84/114/114
f 115/115/115 116/116/116 92/100/100 77/99/99
f 101/72/72 114/88/88 115/115/115 77/99/99
f 102/73/73 101/72/72 77/99/99 78/102/102
f 103/75/75 102/73/73 78/102/102 79/104/104
f 104/77/77 103/75/75 79/104/104 80/106/106
f 105/79/79 104/77/77 80/106/106 81/108/108
f 106/81/81 105/79/79 81/108/108 82/110/110
f 107/62/62 106/81/81 82/110/110 72/89/89
f 108/63/63 107/62/62 72/89/89 73/92/92
f 109/65/65 108/63/63 73/92/92 74/94/94
f 110/67/67 109/65/65 74/94/94 75/96/96
f 111/69/69 110/67/67 75/96/96 76/98/98
f 119/111/111 84/114/114 112/84/84 118/83/83
f 113/87/87 85/117/117 100/118/118 114/88/88
f 115/115/115 114/88/88 100/118/118 86/119/119
f 86/119/119 99/120/120 116/116/116 115/115/115
f 111/69/69 118/83/83 117/86/86 65/70/70
f 76/98/98 119/111/111 118/83/83 111/69/69
f 76/98/98 91/97/97 120/112/112 119/111/111
